<?xml version="1.0" encoding="UTF-8"?>
<!DOCTYPE svg PUBLIC "-//W3C//DTD SVG 1.1//EN" "http://www.w3.org/Graphics/SVG/1.1/DTD/svg11.dtd">
<!-- Creator: CorelDRAW X7 -->
<svg xmlns="http://www.w3.org/2000/svg" xml:space="preserve" width="25.461mm" height="15.3254mm" version="1.1" style="shape-rendering:geometricPrecision; text-rendering:geometricPrecision; image-rendering:optimizeQuality; fill-rule:evenodd; clip-rule:evenodd"
viewBox="0 0 2546 1533"
 xmlns:xlink="http://www.w3.org/1999/xlink">
 <defs>
  <style type="text/css">
   <![CDATA[
    .str0 {stroke:#2B2A29;stroke-width:7.62}
    .fil0 {fill:none}
    .fil1 {fill:#FFED00}
    .fil2 {fill:#727271;fill-rule:nonzero}
   ]]>
  </style>
 </defs>
 <g id="Слой_x0020_1">
  <metadata id="CorelCorpID_0Corel-Layer"/>
  <path class="fil0 str0" d="M63 4l2420 0c33,0 59,30 59,68l0 1388c0,38 -26,69 -59,69l-2420 0c-33,0 -59,-31 -59,-69l0 -1388c0,-38 26,-68 59,-68z"/>
  <path class="fil1" d="M81 8l2385 0c43,0 78,31 78,69l0 182c0,37 -35,68 -78,68l-2385 0c-42,0 -77,-31 -77,-68l0 -182c0,-38 35,-69 77,-69z"/>
  <path class="fil1" d="M81 1337l2385 0c43,0 78,18 78,41l0 108c0,23 -35,41 -78,41l-2385 0c-42,0 -77,-18 -77,-41l0 -108c0,-23 35,-41 77,-41z"/>
  <g id="_891204432">
   <path class="fil2" d="M190 1429c0,-30 -11,-63 -43,-63 -32,0 -43,33 -43,63 0,30 13,61 43,61 31,0 43,-31 43,-61zm-55 0c0,-36 7,-38 12,-38 5,0 12,2 12,38 0,35 -8,35 -12,35 -4,0 -12,0 -12,-35zm96 -32l45 0 3 -29 -72 0 -4 69 24 4c3,-5 8,-8 13,-8 8,0 13,6 13,15 0,8 -5,14 -13,14 -7,0 -13,-4 -15,-13l-27 4c3,24 22,37 43,37 23,0 43,-16 43,-43 0,-11 -3,-21 -10,-28 -6,-7 -16,-11 -25,-11 -7,0 -13,2 -19,6l1 -17zm146 32c0,-30 -11,-63 -43,-63 -31,0 -42,33 -42,63 0,30 12,61 42,61 31,0 43,-31 43,-61zm-54 0c0,-36 7,-38 11,-38 5,0 12,2 12,38 0,35 -8,35 -12,35 -4,0 -11,0 -11,-35z"/>
   <path class="fil2" d="M465 1453l-28 5c3,21 18,32 37,32 15,0 28,-6 36,-22 7,-12 9,-28 9,-43 0,-31 -11,-59 -43,-59 -23,0 -41,14 -41,41 0,23 13,38 33,38 9,0 16,-3 21,-11l0 3c0,13 -3,27 -14,27 -6,0 -9,-5 -10,-11zm22 -47c0,8 -4,14 -12,14 -7,0 -11,-7 -11,-14 0,-8 4,-15 12,-15 7,0 11,7 11,15zm96 0l28 -4c-3,-23 -19,-36 -39,-36 -32,0 -44,33 -44,65 0,31 14,59 44,59 22,0 41,-16 41,-41 0,-22 -13,-38 -32,-38 -9,0 -17,3 -22,11 0,-10 1,-31 14,-31 8,0 10,7 10,15zm0 45c0,8 -4,14 -11,14 -8,0 -12,-6 -12,-14 0,-8 5,-15 12,-15 7,0 11,8 11,15zm124 -22c0,-30 -11,-63 -43,-63 -32,0 -42,33 -42,63 0,30 12,61 42,61 31,0 43,-31 43,-61zm-54 0c0,-36 7,-38 11,-38 5,0 12,2 12,38 0,35 -8,35 -12,35 -4,0 -11,0 -11,-35z"/>
   <path class="fil2" d="M793 1397l45 0 3 -29 -72 0 -4 69 24 4c3,-5 8,-8 13,-8 8,0 13,6 13,15 0,8 -5,14 -12,14 -8,0 -14,-4 -16,-13l-27 4c3,24 22,37 43,37 23,0 43,-16 43,-43 0,-11 -3,-21 -10,-28 -6,-7 -16,-11 -25,-11 -7,0 -13,2 -19,6l1 -17zm144 91l1 -29 -42 0 3 -2 25 -21c9,-8 13,-18 13,-31 0,-26 -18,-39 -39,-39 -23,0 -40,16 -43,42l27 6c1,-9 3,-21 13,-21 7,0 11,6 11,13 0,10 -8,18 -14,24l-37 30 0 28 82 0z"/>
   <path class="fil2" d="M1030 1397l44 0 3 -29 -71 0 -5 69 25 4c2,-5 7,-8 12,-8 8,0 14,6 14,15 0,8 -6,14 -13,14 -8,0 -14,-4 -15,-13l-28 4c4,24 23,37 44,37 22,0 42,-16 42,-43 0,-11 -3,-21 -10,-28 -6,-7 -16,-11 -24,-11 -7,0 -14,2 -20,6l2 -17zm144 64l-25 0 0 -95 -24 0c-6,12 -19,17 -30,20l0 27c7,-1 15,-4 22,-8l1 -1 0 57 -26 0 0 27 82 0 0 -27z"/>
   <path class="fil2" d="M1456 1429c0,-30 -10,-63 -42,-63 -32,0 -43,33 -43,63 0,30 12,61 43,61 30,0 42,-31 42,-61zm-54 0c0,-36 7,-38 12,-38 5,0 12,2 12,38 0,35 -8,35 -12,35 -4,0 -12,0 -12,-35zm93 24l-27 5c3,21 18,32 36,32 16,0 28,-6 36,-22 7,-12 10,-28 10,-43 0,-31 -12,-59 -44,-59 -22,0 -41,14 -41,41 0,23 14,38 34,38 9,0 16,-3 20,-11l1 3c0,13 -3,27 -15,27 -5,0 -9,-5 -10,-11zm23 -47c0,8 -5,14 -13,14 -7,0 -10,-7 -10,-14 0,-8 4,-15 11,-15 8,0 12,7 12,15zm71 47l-27 5c2,21 17,32 36,32 15,0 28,-6 36,-22 7,-12 10,-28 10,-43 0,-31 -12,-59 -44,-59 -22,0 -41,14 -41,41 0,23 14,38 34,38 8,0 15,-3 20,-11l0 3c0,13 -3,27 -14,27 -6,0 -9,-5 -10,-11zm22 -47c0,8 -4,14 -12,14 -7,0 -10,-7 -10,-14 0,-8 3,-15 11,-15 7,0 11,7 11,15z"/>
   <path class="fil2" d="M1781 1461l-25 0 0 -95 -24 0c-6,12 -19,17 -31,20l0 27c8,-1 16,-4 23,-8l1 -1 0 57 -26 0 0 27 82 0 0 -27zm92 -71l0 -22 -77 0 -2 30 49 0c-19,24 -33,57 -34,90l36 0 0 -7c0,-2 -1,-3 -1,-5 0,-30 13,-63 29,-86zm97 39c0,-30 -11,-63 -43,-63 -32,0 -43,33 -43,63 0,30 12,61 43,61 31,0 43,-31 43,-61zm-55 0c0,-36 7,-38 12,-38 5,0 12,2 12,38 0,35 -8,35 -12,35 -4,0 -12,0 -12,-35z"/>
   <path class="fil2" d="M2099 1462l15 0 0 -26 -15 0 0 -70 -33 0 -41 70 0 26 44 0 0 26 30 0 0 -26zm-30 -62l0 36 -20 0 20 -36zm138 52c0,-14 -6,-23 -17,-29 8,-7 13,-13 13,-25 0,-23 -21,-32 -39,-32 -10,0 -20,2 -28,9 -8,7 -13,17 -13,28 0,11 4,21 13,26 -10,5 -16,14 -16,27 0,12 5,22 14,27 8,5 19,7 28,7 22,0 45,-10 45,-38zm-37 -38l-8 -4c-5,-2 -10,-5 -10,-11 0,-7 5,-9 10,-9 7,0 14,4 14,12 0,5 -2,9 -6,12zm-15 27l10 5c5,2 11,5 11,11 0,8 -7,10 -13,10 -7,0 -15,-4 -15,-13 0,-6 3,-10 7,-13z"/>
   <path class="fil2" d="M2314 1406l28 -4c-3,-23 -18,-36 -39,-36 -32,0 -44,33 -44,65 0,31 14,59 45,59 21,0 41,-16 41,-41 0,-22 -13,-38 -33,-38 -9,0 -17,3 -22,11 1,-10 2,-31 14,-31 8,0 10,7 10,15zm0 45c0,8 -4,14 -11,14 -8,0 -12,-6 -12,-14 0,-8 5,-15 12,-15 7,0 11,8 11,15zm125 1c0,-14 -6,-23 -17,-29 8,-7 14,-13 14,-25 0,-23 -22,-32 -40,-32 -10,0 -20,2 -28,9 -8,7 -13,17 -13,28 0,11 5,21 14,26 -11,5 -17,14 -17,27 0,12 5,22 15,27 8,5 18,7 27,7 22,0 45,-10 45,-38zm-37 -38l-8 -4c-5,-2 -10,-5 -10,-11 0,-7 5,-9 11,-9 6,0 13,4 13,12 0,5 -2,9 -6,12zm-15 27l11 5c4,2 10,5 10,11 0,8 -7,10 -12,10 -8,0 -16,-4 -16,-13 0,-6 3,-10 7,-13z"/>
   <path class="fil2" d="M1271 1458c15,0 27,-13 27,-30 0,-17 -12,-30 -27,-30 -15,0 -27,13 -27,30 0,17 12,30 27,30z"/>
  </g>
 </g>
</svg>
