<?xml version="1.0" encoding="UTF-8"?>
<!DOCTYPE svg PUBLIC "-//W3C//DTD SVG 1.1//EN" "http://www.w3.org/Graphics/SVG/1.1/DTD/svg11.dtd">
<!-- Creator: CorelDRAW X7 -->
<svg xmlns="http://www.w3.org/2000/svg" xml:space="preserve" width="42.2468mm" height="2.8374mm" version="1.1" style="shape-rendering:geometricPrecision; text-rendering:geometricPrecision; image-rendering:optimizeQuality; fill-rule:evenodd; clip-rule:evenodd"
viewBox="0 0 4225 284"
 xmlns:xlink="http://www.w3.org/1999/xlink">
 <defs>
  <style type="text/css">
   <![CDATA[
    .fil0 {fill:#727271;fill-rule:nonzero}
   ]]>
  </style>
 </defs>
 <g id="Слой_x0020_1">
  <metadata id="CorelCorpID_0Corel-Layer"/>
  <path class="fil0" d="M79 138c0,11 -4,20 -11,28 -8,7 -17,11 -28,11 -11,0 -21,-4 -29,-11 -7,-8 -11,-17 -11,-28 0,-12 4,-21 11,-29 8,-7 18,-11 29,-11 11,0 20,4 28,11 7,8 11,17 11,29zm262 69c0,22 -4,39 -11,50 -12,18 -33,27 -65,27 -19,0 -32,-2 -38,-4 -6,-3 -9,-6 -9,-10l0 -38c0,-5 2,-7 7,-7 2,0 4,0 6,1 2,0 4,1 7,1 2,1 6,1 10,1 4,1 7,1 8,1 12,0 19,-4 23,-10 2,-5 3,-13 3,-26l0 -176c0,-5 1,-8 2,-9 2,-3 6,-5 12,-5l31 0c6,0 10,1 11,4 2,2 3,5 3,10l0 190zm219 -6c0,23 -6,42 -19,55 -16,17 -40,25 -72,25l-85 0c-8,0 -11,-5 -11,-14l0 -253c0,-4 0,-7 2,-9 2,-1 5,-2 9,-2l77 0c30,0 53,7 68,21 14,13 21,29 21,49 0,13 -4,24 -10,34 -6,10 -16,17 -28,22l0 2c15,5 27,14 35,26 9,12 13,27 13,44zm-72 -120c0,-7 -2,-13 -7,-18 -6,-5 -16,-8 -30,-8l-13 0c-4,0 -7,2 -7,5l0 43c0,3 3,5 8,5l12 0c13,0 22,-3 28,-8 6,-5 9,-11 9,-19zm9 114c0,-10 -3,-18 -10,-25 -7,-7 -18,-11 -32,-11l-17 0c-3,0 -5,1 -6,2 -1,2 -1,3 -1,5l0 58c0,3 2,5 5,5l19 0c14,0 24,-3 31,-10 7,-6 11,-14 11,-24zm263 8c0,25 -8,45 -26,59 -17,15 -41,22 -71,22 -10,0 -21,-1 -33,-2 -13,-2 -22,-4 -28,-6 -3,-2 -6,-3 -7,-5 0,-2 -1,-4 -1,-6l0 -36c0,-3 1,-5 3,-6 2,-1 4,-2 5,-2 3,0 5,1 8,1 3,1 5,2 6,2 5,1 11,3 20,4 9,1 17,2 22,2 12,0 21,-3 28,-7 7,-5 10,-12 10,-21 0,-12 -8,-24 -23,-34 -11,-8 -19,-13 -25,-16 -19,-13 -33,-24 -40,-33 -9,-12 -14,-27 -14,-45 0,-24 8,-42 25,-55 16,-13 38,-19 66,-19 12,0 24,1 36,3 18,3 27,8 27,14l0 36c0,1 0,2 0,2 -1,4 -3,5 -7,5l-19 -3c-10,-2 -17,-4 -20,-4 -3,0 -7,-1 -12,-1 -11,0 -19,2 -24,5 -5,4 -7,8 -7,13 0,9 15,23 44,43 18,11 31,22 38,32 13,17 19,36 19,58zm238 -65c0,11 -4,20 -11,28 -8,7 -17,11 -28,11 -11,0 -21,-4 -29,-11 -7,-8 -11,-17 -11,-28 0,-12 4,-21 11,-29 8,-7 18,-11 29,-11 11,0 20,4 28,11 7,8 11,17 11,29z"/>
  <path class="fil0" d="M1353 272c0,6 -3,9 -10,9l-41 0c-3,0 -6,-2 -9,-4 -2,-3 -4,-6 -6,-10l-54 -110 -17 23 0 87c0,6 -1,10 -4,11 -2,2 -5,3 -10,3l-31 0c-6,0 -10,-2 -12,-4 -1,-2 -2,-6 -2,-10l0 -250c0,-5 1,-8 2,-9 2,-3 6,-5 12,-5l31 0c6,0 10,1 11,4 2,2 3,5 3,10l0 75 56 -80c4,-6 9,-9 16,-9l44 0c5,0 7,3 7,7 0,2 0,4 0,5 -1,1 -2,2 -3,4l-63 85 76 155c2,5 4,9 4,13zm196 -79c0,23 -4,42 -13,57 -14,22 -38,34 -73,34 -35,0 -59,-11 -73,-34 -9,-14 -13,-34 -13,-57l0 -176c0,-5 0,-8 1,-9 2,-3 6,-5 12,-5l31 0c6,0 10,1 12,4 1,2 2,5 2,10l0 175c0,10 1,18 3,23 5,10 13,15 25,15 10,0 17,-3 21,-9 4,-6 7,-15 7,-29l0 -175c0,-5 0,-8 1,-9 2,-3 6,-5 13,-5l30 0c7,0 10,1 12,4 2,2 2,5 2,10l0 176zm224 8c0,23 -7,42 -20,55 -16,17 -39,25 -71,25l-85 0c-8,0 -12,-5 -12,-14l0 -253c0,-4 1,-7 3,-9 2,-1 5,-2 9,-2l76 0c31,0 54,7 69,21 13,13 20,29 20,49 0,13 -3,24 -9,34 -7,10 -16,17 -29,22l0 2c16,5 27,14 36,26 9,12 13,27 13,44zm-72 -120c0,-7 -3,-13 -7,-18 -7,-5 -17,-8 -31,-8l-12 0c-5,0 -7,2 -7,5l0 43c0,3 2,5 7,5l13 0c12,0 22,-3 28,-8 6,-5 9,-11 9,-19zm8 114c0,-10 -3,-18 -9,-25 -8,-7 -19,-11 -33,-11l-17 0c-3,0 -5,1 -5,2 -1,2 -1,3 -1,5l0 58c0,3 1,5 5,5l18 0c14,0 25,-3 32,-10 7,-6 10,-14 10,-24zm264 -15c0,26 -3,46 -10,61 -13,28 -39,43 -76,43 -29,0 -51,-9 -65,-26 -14,-17 -21,-43 -21,-78l0 -76c0,-26 3,-47 10,-62 13,-28 38,-42 76,-42 35,0 60,13 73,38 9,16 13,38 13,66l0 76zm-58 -7l0 -62c0,-21 -1,-35 -4,-42 -4,-12 -12,-17 -24,-17 -12,0 -21,5 -24,17 -3,7 -4,21 -4,42l0 62c0,20 1,34 4,42 3,11 12,17 24,17 12,0 20,-5 24,-17 3,-7 4,-21 4,-42zm267 -125c0,5 -3,8 -9,8l-51 0c-5,0 -7,3 -7,7l0 204c0,4 -1,8 -2,9 -2,3 -6,5 -12,5l-31 0c-6,0 -10,-2 -11,-4 -2,-2 -3,-6 -3,-10l0 -204c0,-4 -2,-7 -7,-7l-50 0c-7,0 -10,-2 -10,-8l0 -37c0,-5 3,-8 9,-8l175 0c4,0 6,1 7,3 1,2 2,4 2,7l0 35zm207 221c0,1 0,3 0,5 0,4 -2,7 -8,7l-39 0c-4,0 -7,-1 -9,-4 -1,-2 -3,-4 -3,-8l-8 -30c-1,-4 -4,-6 -8,-6l-55 0c-4,0 -7,2 -7,6l-8 32c-1,2 -2,5 -3,7 -2,2 -5,3 -8,3l-39 0c-5,0 -7,-3 -7,-8 0,-1 0,-2 0,-2 0,-1 0,-2 0,-2l61 -255c1,-4 3,-8 5,-9 2,-1 5,-2 8,-2l50 0c4,0 7,1 8,2 2,1 4,5 5,9l65 255zm-83 -95l-18 -70c0,-1 0,-2 -1,-2 -1,-1 -1,-1 -1,-2 -2,2 -3,3 -3,4l-16 70c-1,4 0,6 3,6l33 0c3,0 4,-2 3,-6zm304 -36c0,11 -4,20 -11,28 -8,7 -17,11 -28,11 -12,0 -21,-4 -29,-11 -7,-8 -11,-17 -11,-28 0,-12 4,-21 11,-29 8,-7 17,-11 29,-11 11,0 20,4 28,11 7,8 11,17 11,29zm354 134c0,6 -3,9 -9,9l-41 0c-4,0 -7,-2 -9,-4 -2,-3 -4,-6 -6,-10l-54 -110 -18 23 0 87c0,6 -1,10 -3,11 -2,2 -6,3 -11,3l-30 0c-7,0 -10,-2 -12,-4 -2,-2 -2,-6 -2,-10l0 -250c0,-5 0,-8 1,-9 2,-3 6,-5 13,-5l30 0c7,0 10,1 12,4 2,2 2,5 2,10l0 75 56 -80c4,-6 10,-9 16,-9l44 0c5,0 8,3 8,7 0,2 0,4 -1,5 0,1 -1,2 -3,4l-62 85 76 155c2,5 3,9 3,13zm191 -92c0,26 -3,46 -10,61 -13,28 -39,43 -76,43 -30,0 -51,-9 -66,-26 -14,-17 -21,-43 -21,-78l0 -76c0,-26 4,-47 11,-62 13,-28 38,-42 76,-42 35,0 59,13 73,38 9,16 13,38 13,66l0 76zm-59 -7l0 -62c0,-21 -1,-35 -3,-42 -4,-12 -12,-17 -24,-17 -13,0 -21,5 -24,17 -3,7 -4,21 -4,42l0 62c0,20 1,34 4,42 3,11 11,17 24,17 12,0 20,-5 24,-17 2,-7 3,-21 3,-42zm309 94c0,6 -1,10 -3,11 -2,2 -6,3 -11,3l-31 0c-6,0 -10,-2 -11,-4 -2,-2 -3,-6 -3,-10l0 -141c0,-2 -1,-3 -1,-3l-1 1 -31 75c-2,4 -3,7 -5,8 -2,1 -4,2 -6,2l-13 0c-5,0 -8,-4 -11,-10l-32 -78c-1,0 -2,0 -3,0l0 146c0,6 -1,10 -3,11 -2,2 -6,3 -10,3l-31 0c-5,0 -8,-1 -10,-2 -3,-2 -4,-6 -4,-12l0 -250c0,-5 0,-8 1,-9 2,-3 7,-5 13,-5l35 0c4,0 7,1 10,4 2,1 3,3 4,6l43 85c1,2 1,3 2,5 1,1 2,2 3,2 1,0 2,-1 3,-3 1,-2 1,-3 1,-3l43 -85c2,-4 4,-7 7,-8 2,-2 5,-3 8,-3l33 0c6,0 10,1 12,4 1,2 2,5 2,10l0 250zm221 2c0,1 1,3 1,5 0,4 -3,7 -9,7l-39 0c-4,0 -7,-1 -8,-4 -2,-2 -3,-4 -4,-8l-8 -30c-1,-4 -4,-6 -8,-6l-54 0c-5,0 -7,2 -8,6l-8 32c0,2 -1,5 -3,7 -2,2 -5,3 -8,3l-39 0c-5,0 -7,-3 -7,-8 0,-1 0,-2 0,-2 0,-1 1,-2 1,-2l61 -255c1,-4 2,-8 4,-9 2,-1 5,-2 9,-2l50 0c3,0 6,1 8,2 2,1 3,5 5,9l64 255zm-83 -95l-17 -70c-1,-1 -1,-2 -2,-2 0,-1 -1,-1 -1,-2 -2,2 -3,3 -3,4l-15 70c-1,4 -1,6 2,6l33 0c3,0 4,-2 3,-6zm281 -126c0,5 -3,8 -8,8l-52 0c-5,0 -7,3 -7,7l0 204c0,4 0,8 -2,9 -2,3 -6,5 -12,5l-31 0c-6,0 -10,-2 -11,-4 -2,-2 -3,-6 -3,-10l0 -204c0,-4 -2,-7 -7,-7l-50 0c-6,0 -10,-2 -10,-8l0 -37c0,-5 3,-8 9,-8l176 0c3,0 5,1 6,3 1,2 2,4 2,7l0 35zm188 155c0,25 -8,45 -26,59 -17,15 -41,22 -71,22 -10,0 -21,-1 -34,-2 -12,-2 -21,-4 -27,-6 -4,-2 -6,-3 -7,-5 -1,-2 -1,-4 -1,-6l0 -36c0,-3 1,-5 3,-6 1,-1 3,-2 5,-2 2,0 5,1 8,1 2,1 4,2 6,2 4,1 11,3 20,4 9,1 16,2 22,2 11,0 21,-3 27,-7 7,-5 11,-12 11,-21 0,-12 -8,-24 -23,-34 -11,-8 -20,-13 -25,-16 -19,-13 -33,-24 -40,-33 -9,-12 -14,-27 -14,-45 0,-24 8,-42 24,-55 17,-13 39,-19 67,-19 12,0 24,1 36,3 18,3 27,8 27,14l0 36c0,1 0,2 0,2 -1,4 -3,5 -7,5l-19 -3c-11,-2 -17,-4 -20,-4 -3,0 -7,-1 -13,-1 -11,0 -18,2 -23,5 -5,4 -8,8 -8,13 0,9 15,23 45,43 18,11 30,22 38,32 13,17 19,36 19,58zm213 -10c0,23 -5,42 -14,57 -14,22 -38,34 -73,34 -34,0 -59,-11 -73,-34 -9,-14 -13,-34 -13,-57l0 -176c0,-5 0,-8 1,-9 3,-3 7,-5 13,-5l31 0c6,0 10,1 11,4 2,2 3,5 3,10l0 175c0,10 1,18 3,23 4,10 12,15 24,15 10,0 17,-3 21,-9 5,-6 7,-15 7,-29l0 -175c0,-5 1,-8 2,-9 2,-3 6,-5 12,-5l31 0c6,0 10,1 11,4 2,2 3,5 3,10l0 176z"/>
 </g>
</svg>
