<?xml version="1.0" encoding="UTF-8"?>
<!DOCTYPE svg PUBLIC "-//W3C//DTD SVG 1.1//EN" "http://www.w3.org/Graphics/SVG/1.1/DTD/svg11.dtd">
<!-- Creator: CorelDRAW X7 -->
<svg xmlns="http://www.w3.org/2000/svg" xml:space="preserve" width="26.5828mm" height="4.2475mm" version="1.1" style="shape-rendering:geometricPrecision; text-rendering:geometricPrecision; image-rendering:optimizeQuality; fill-rule:evenodd; clip-rule:evenodd"
viewBox="0 0 2663 425"
 xmlns:xlink="http://www.w3.org/1999/xlink">
 <defs>
  <style type="text/css">
   <![CDATA[
    .fil0 {fill:#727271;fill-rule:nonzero}
   ]]>
  </style>
 </defs>
 <g id="Слой_x0020_1">
  <metadata id="CorelCorpID_0Corel-Layer"/>
  <path class="fil0" d="M185 342c0,8 -4,13 -12,17 -9,4 -28,5 -57,5 -47,0 -80,-12 -98,-37 -12,-18 -18,-44 -18,-79l0 -145c0,-30 7,-53 21,-69 20,-23 52,-34 99,-34 25,0 42,2 52,5 5,2 8,6 8,11l0 47c0,2 0,4 -1,6 -1,1 -2,2 -5,2 -8,-1 -16,-3 -24,-5 -8,-1 -16,-2 -23,-2 -23,0 -38,7 -45,22 -4,9 -7,26 -7,49l0 86c0,30 4,49 12,59 7,9 22,14 44,14 12,0 20,-1 25,-3 4,-2 11,-3 22,-3 5,0 7,3 7,9l0 45zm260 1c0,6 0,10 -2,12 -2,3 -8,5 -15,5l-40 0c-8,0 -13,-1 -15,-4 -2,-3 -3,-7 -3,-13l0 -266c0,-5 -3,-8 -8,-8l-56 0c-5,0 -7,3 -7,8l0 266c0,7 -2,12 -5,14 -2,2 -7,3 -13,3l-40 0c-6,0 -10,0 -12,-2 -4,-2 -6,-8 -6,-15l0 -321c0,-6 1,-10 2,-12 3,-4 8,-6 16,-6l187 0c7,0 12,2 14,4 2,3 3,8 3,14l0 321zm250 0c0,6 0,10 -2,12 -3,3 -8,5 -16,5l-173 0c-6,0 -10,0 -12,-2 -4,-2 -6,-8 -6,-15l0 -321c0,-6 1,-10 2,-12 3,-4 8,-6 16,-6l167 0c8,0 13,2 15,4 2,3 3,8 3,14l0 36c0,4 -2,7 -4,9 -3,2 -7,3 -12,3l-102 0c-7,0 -10,3 -10,8l0 54c0,6 2,9 6,9l80 0c4,0 7,1 9,3 2,1 3,4 3,7l0 46c0,7 -3,10 -10,10l-81 0c-4,0 -7,3 -7,9l0 72c0,4 2,6 6,6l114 0c6,0 10,1 12,3 1,3 2,6 2,10l0 36zm295 65c0,7 -1,12 -4,14 -3,2 -7,3 -13,3l-38 0c-7,0 -12,-1 -14,-4 -2,-3 -3,-7 -3,-13l0 -40c0,-5 -3,-8 -9,-8l-158 0c-6,0 -10,0 -12,-2 -4,-2 -6,-8 -6,-15l0 -321c0,-6 1,-10 2,-12 3,-4 8,-6 16,-6l40 0c8,0 13,2 15,4 2,3 3,8 3,14l0 265c0,1 0,3 2,5 1,1 3,2 5,2l56 0c5,0 8,-3 8,-8l0 -264c0,-6 1,-10 2,-12 3,-4 8,-6 16,-6l39 0c8,0 13,2 15,4 2,3 3,8 3,13l0 266c0,3 1,5 1,6 1,1 2,1 5,1l12 0c6,0 10,1 12,2 4,3 5,8 5,16l0 96zm253 -346c0,7 -4,10 -11,10l-66 0c-6,0 -9,3 -9,9l0 262c0,6 -1,10 -2,12 -3,3 -8,5 -16,5l-40 0c-8,0 -12,-1 -14,-4 -3,-3 -4,-7 -4,-13l0 -262c0,-6 -3,-9 -9,-9l-64 0c-8,0 -13,-3 -13,-10l0 -48c0,-7 4,-10 12,-10l225 0c4,0 7,1 9,4 1,2 2,5 2,8l0 46zm232 281c0,6 -1,10 -2,12 -3,3 -8,5 -16,5l-173 0c-7,0 -11,0 -13,-2 -3,-2 -5,-8 -5,-15l0 -321c0,-6 0,-10 2,-12 2,-4 8,-6 16,-6l166 0c8,0 13,2 15,4 2,3 3,8 3,14l0 36c0,4 -1,7 -4,9 -2,2 -6,3 -12,3l-102 0c-6,0 -9,3 -9,8l0 54c0,6 2,9 6,9l80 0c3,0 6,1 8,3 3,1 4,4 4,7l0 46c0,7 -4,10 -10,10l-81 0c-5,0 -7,3 -7,9l0 72c0,4 2,6 6,6l114 0c6,0 10,1 11,3 2,3 3,6 3,10l0 36zm272 1c2,2 2,5 2,8 0,5 -3,8 -10,8l-52 0c-5,0 -8,0 -10,-1 -3,-2 -6,-6 -9,-12l-41 -86c-2,-3 -3,-4 -3,-4 -2,0 -3,2 -5,5l-38 83c-2,4 -4,8 -6,9 -4,4 -8,6 -13,6l-55 0c-6,0 -9,-3 -9,-9 0,-2 0,-5 2,-8l78 -169c2,-3 3,-6 3,-9 0,-1 -1,-2 -1,-4 -1,-1 -1,-2 -2,-3l-60 -139c-1,-2 -2,-4 -2,-6 0,-6 4,-9 11,-9l50 0c4,0 7,1 10,3 4,2 6,5 9,10l24 58c2,3 4,5 5,5 2,-2 3,-3 3,-4l31 -63c1,-2 2,-4 3,-5 2,-3 6,-4 12,-4l54 0c7,0 11,3 11,9 0,3 -1,5 -2,7l-68 141c0,2 -1,3 0,5 0,2 1,5 2,7l76 171zm250 -1c0,6 -1,10 -2,12 -3,3 -8,5 -16,5l-40 0c-8,0 -13,-1 -15,-4 -2,-3 -3,-7 -3,-13l0 -134c0,-5 -2,-8 -8,-8l-55 0c-5,0 -8,3 -8,8l0 134c0,7 -1,12 -4,14 -3,2 -8,3 -14,3l-40 0c-6,0 -10,0 -12,-2 -3,-2 -5,-8 -5,-15l0 -321c0,-6 0,-10 2,-12 2,-4 8,-6 15,-6l40 0c8,0 13,2 15,4 2,3 3,8 3,14l0 98c0,3 0,6 1,7 1,2 3,3 7,3l55 0c2,0 3,0 4,-1 3,-1 4,-5 4,-10l0 -97c0,-6 1,-10 2,-12 3,-4 8,-6 16,-6l40 0c8,0 12,2 14,4 3,3 4,8 4,14l0 321zm116 0c0,7 -2,12 -5,14 -3,2 -7,3 -13,3l-40 0c-6,0 -10,0 -12,-2 -4,-2 -6,-8 -6,-15l0 -321c0,-6 1,-10 2,-12 3,-4 8,-6 16,-6l40 0c8,0 12,2 15,4 2,3 3,8 3,14l0 321zm278 -292c0,5 -1,8 -4,10 -2,2 -5,3 -7,3l-10 0c-5,0 -8,2 -9,5 -2,4 -3,9 -3,13l0 42c0,11 -2,20 -7,27 -6,5 -12,10 -19,15l0 2c13,7 24,14 31,24 8,9 12,23 12,42l0 109c0,6 0,10 -2,12 -3,3 -8,5 -16,5l-39 0c-8,0 -13,-1 -15,-4 -2,-3 -3,-7 -3,-14l0 -84c0,-16 -3,-29 -10,-37 -6,-9 -16,-13 -30,-13l-25 0c-4,0 -6,2 -6,8l0 126c0,8 -2,13 -5,15 -3,2 -7,3 -13,3l-40 0c-6,0 -10,0 -12,-2 -4,-2 -6,-8 -6,-15l0 -321c0,-6 1,-10 2,-12 3,-4 8,-6 16,-6l40 0c8,0 13,2 15,4 2,3 3,8 3,14l0 109c0,5 2,7 7,7l24 0c8,0 14,-2 18,-7 6,-6 9,-16 9,-30l0 -37c0,-19 5,-34 15,-44 10,-11 23,-16 39,-16l34 0c5,0 8,1 11,4 3,2 5,6 5,11l0 32zm271 294c0,2 1,4 1,7 0,5 -4,8 -11,8l-50 0c-5,0 -9,-1 -11,-4 -2,-2 -4,-6 -5,-10l-10 -39c-2,-5 -5,-7 -10,-7l-70 0c-6,0 -9,2 -10,7l-10 41c-1,3 -2,6 -4,9 -3,2 -6,3 -11,3l-49 0c-7,0 -10,-3 -10,-9 0,-1 0,-2 0,-3 1,-2 1,-3 1,-3l79 -327c1,-6 3,-10 5,-11 3,-2 7,-3 11,-3l64 0c5,0 8,1 11,3 2,1 5,5 6,11l83 327zm-107 -121l-22 -90c0,-2 -1,-3 -2,-3 -1,-1 -1,-2 -2,-2 -2,2 -3,3 -3,5l-20 90c-1,5 0,8 4,8l42 0c4,0 5,-3 3,-8z"/>
 </g>
</svg>
