<?xml version="1.0" encoding="UTF-8"?>
<!DOCTYPE svg PUBLIC "-//W3C//DTD SVG 1.1//EN" "http://www.w3.org/Graphics/SVG/1.1/DTD/svg11.dtd">
<!-- Creator: CorelDRAW X7 -->
<svg xmlns="http://www.w3.org/2000/svg" xml:space="preserve" width="45.5874mm" height="29.0413mm" version="1.1" style="shape-rendering:geometricPrecision; text-rendering:geometricPrecision; image-rendering:optimizeQuality; fill-rule:evenodd; clip-rule:evenodd"
viewBox="0 0 4559 2904"
 xmlns:xlink="http://www.w3.org/1999/xlink">
 <defs>
  <style type="text/css">
   <![CDATA[
    .fil0 {fill:#727271;fill-rule:nonzero}
   ]]>
  </style>
 </defs>
 <g id="Слой_x0020_1">
  <metadata id="CorelCorpID_0Corel-Layer"/>
  <path class="fil0" d="M133 226c0,18 -6,34 -19,47 -13,13 -29,19 -47,19 -19,0 -35,-6 -48,-19 -13,-13 -19,-29 -19,-47 0,-19 6,-35 19,-48 13,-12 29,-19 48,-19 18,0 34,7 47,19 13,13 19,29 19,48z"/>
  <path class="fil0" d="M666 443c0,8 -1,13 -2,16 -4,5 -11,7 -21,7l-227 0c-8,0 -13,-1 -16,-3 -5,-3 -7,-10 -7,-20l0 -420c0,-8 1,-13 2,-16 4,-5 11,-7 21,-7l218 0c11,0 17,2 20,6 2,3 4,9 4,17l0 48c0,4 -2,8 -5,11 -4,3 -9,5 -16,5l-134 0c-8,0 -12,3 -12,10l0 70c0,8 3,12 8,12l105 0c4,0 8,1 11,3 3,3 4,6 4,10l0 60c0,9 -4,14 -13,14l-106 0c-6,0 -9,3 -9,11l0 94c0,6 3,8 8,8l149 0c8,0 13,2 15,5 2,3 3,7 3,12l0 47zm296 -298c0,5 -1,9 -4,11 -2,3 -6,4 -11,4l-5 0c-7,0 -11,5 -11,14l0 45c0,7 0,14 -2,20 -2,7 -4,12 -8,17 -1,1 -4,3 -7,6 -4,2 -5,4 -5,6 11,5 21,13 30,24 9,10 14,24 14,42l0 113c0,8 -2,13 -5,16 -4,2 -8,3 -14,3l-53 0c-6,0 -11,-1 -14,-3 -3,-3 -5,-8 -5,-16l0 -96c0,-15 -3,-26 -9,-33 -5,-6 -13,-10 -23,-10l-15 0c-3,0 -5,1 -6,3 -2,1 -2,3 -2,5l0 131c0,8 -2,13 -5,16 -3,2 -8,3 -14,3l-53 0c-8,0 -13,-2 -15,-5 -3,-3 -4,-8 -4,-14l0 -333c0,-7 2,-13 5,-15 4,-2 8,-3 14,-3l53 0c6,0 11,1 14,3 3,2 5,8 5,15l0 113c0,5 3,8 8,8l6 0c8,0 14,-3 18,-9 4,-6 6,-14 6,-24l0 -43c0,-20 5,-36 17,-47 11,-11 26,-16 46,-16l35 0c6,0 11,1 14,3 3,2 5,8 5,15l0 31zm250 301c0,8 -3,14 -9,17 -10,5 -31,8 -63,8 -59,0 -99,-17 -119,-50 -10,-18 -16,-47 -16,-86l0 -114c0,-39 7,-68 22,-88 20,-28 58,-42 113,-42 32,0 53,2 63,8 6,3 9,9 9,17l0 53c0,9 -4,13 -12,13 -8,0 -17,-1 -27,-3 -11,-3 -20,-4 -27,-4 -20,0 -34,6 -42,19 -6,8 -8,21 -8,38l0 98c0,16 2,27 6,35 8,15 23,22 44,22l30 -4c3,0 7,-1 12,-2 5,-1 9,-2 12,-2 4,0 8,2 9,4 2,3 3,6 3,10l0 53zm292 -301c0,5 -1,9 -4,11 -2,3 -6,4 -11,4l-5 0c-7,0 -11,5 -11,14l0 45c0,7 -1,14 -2,20 -2,7 -4,12 -8,17 -2,1 -4,3 -7,6 -4,2 -5,4 -5,6 11,5 21,13 30,24 9,10 13,24 13,42l0 113c0,8 -1,13 -5,16 -3,2 -7,3 -13,3l-53 0c-6,0 -11,-1 -14,-3 -3,-3 -5,-8 -5,-16l0 -96c0,-15 -3,-26 -9,-33 -5,-6 -13,-10 -23,-10l-15 0c-3,0 -6,1 -7,3 -1,1 -1,3 -1,5l0 131c0,8 -2,13 -5,16 -4,2 -8,3 -14,3l-53 0c-8,0 -13,-2 -16,-5 -2,-3 -3,-8 -3,-14l0 -333c0,-7 2,-13 5,-15 3,-2 8,-3 14,-3l53 0c6,0 10,1 14,3 3,2 5,8 5,15l0 113c0,5 2,8 8,8l6 0c8,0 14,-3 18,-9 4,-6 6,-14 6,-24l0 -43c0,-20 5,-36 17,-47 11,-11 26,-16 46,-16l35 0c6,0 10,1 14,3 3,2 5,8 5,15l0 31zm283 298c0,7 -1,12 -2,14 -3,6 -9,9 -18,9l-56 0c-9,0 -13,-4 -13,-11 0,-3 -2,-4 -5,-4 -3,1 -5,2 -6,3 -6,5 -14,10 -24,13 -11,3 -21,4 -31,4 -25,0 -47,-9 -63,-28 -18,-21 -27,-50 -27,-88 0,-45 14,-81 44,-106 17,-15 46,-30 87,-45l17 -6c4,-1 6,-5 6,-10 0,-10 -4,-16 -12,-20 -8,-3 -18,-5 -30,-5 -13,0 -22,1 -29,2 -8,2 -14,4 -20,5 -5,2 -10,3 -13,4 -8,4 -13,5 -16,5 -8,0 -12,-4 -12,-12l0 -41c0,-9 5,-16 14,-21 17,-10 45,-14 84,-14 50,0 85,11 105,34 13,16 20,40 20,71l0 247zm-91 -77l0 -85c0,-2 -1,-4 -2,-5 -2,-1 -4,0 -7,2l-11 7c-14,8 -23,16 -28,24 -8,11 -12,24 -12,40 0,13 3,23 7,30 5,8 12,12 23,12 8,0 16,-3 22,-8 5,-4 8,-10 8,-17zm400 -13c0,37 -12,65 -35,84 -23,19 -56,29 -99,29l-107 0c-5,0 -8,-2 -11,-5 -3,-3 -4,-7 -4,-14l0 -333c0,-7 2,-13 5,-15 3,-2 8,-3 14,-3l116 0c34,0 61,9 80,28 17,17 25,38 25,62 0,19 -5,35 -14,49 -6,8 -14,16 -24,23 -2,1 -3,1 -3,2 0,1 0,1 1,2l15 8c12,7 21,16 28,28 8,15 13,33 13,55zm-112 -154c0,-10 -3,-17 -9,-23 -7,-6 -15,-9 -26,-9l-12 0c-4,0 -7,2 -7,7l0 51c0,4 3,7 7,7l15 0c11,0 19,-4 24,-10 6,-6 8,-14 8,-23zm14 149c0,-12 -4,-22 -12,-32 -8,-9 -18,-14 -32,-14l-16 0c-3,0 -5,1 -6,3 0,2 -1,4 -2,7l0 75c0,5 2,8 6,8l16 0c15,0 26,-5 34,-14 8,-9 12,-20 12,-33zm380 95c0,7 0,12 -2,14 -3,6 -9,9 -17,9l-56 0c-9,0 -13,-4 -13,-11 0,-3 -2,-4 -5,-4 -3,1 -5,2 -6,3 -6,5 -14,10 -25,13 -10,3 -20,4 -30,4 -26,0 -47,-9 -63,-28 -18,-21 -27,-50 -27,-88 0,-45 14,-81 43,-106 18,-15 47,-30 88,-45l16 -6c5,-1 7,-5 7,-10 0,-10 -4,-16 -12,-20 -9,-3 -19,-5 -31,-5 -12,0 -22,1 -28,2 -8,2 -14,4 -20,5 -5,2 -10,3 -13,4 -8,4 -14,5 -16,5 -8,0 -13,-4 -13,-12l0 -41c0,-9 5,-16 15,-21 17,-10 44,-14 83,-14 51,0 86,11 106,34 13,16 19,40 19,71l0 247zm-90 -77l0 -85c0,-2 -1,-4 -3,-5 -1,-1 -4,0 -6,2l-12 7c-13,8 -22,16 -28,24 -7,11 -11,24 -11,40 0,13 2,23 7,30 5,8 12,12 22,12 9,0 17,-3 22,-8 6,-4 9,-10 9,-17zm362 -210c0,6 -1,10 -3,13 -2,4 -8,5 -16,5l-49 0c-5,0 -8,3 -8,8l0 265c0,8 -1,13 -5,16 -3,2 -8,3 -13,3l-54 0c-5,0 -10,-1 -13,-3 -4,-3 -5,-8 -5,-16l0 -265c0,-5 -3,-8 -8,-8l-50 0c-5,0 -10,-1 -13,-3 -4,-2 -5,-7 -5,-15l0 -42c0,-7 1,-13 5,-15 3,-2 8,-3 13,-3l205 0c6,0 11,1 14,3 3,2 5,8 5,15l0 42zm278 181c0,36 -7,65 -20,86 -21,32 -56,48 -106,48 -50,0 -85,-16 -106,-48 -14,-21 -21,-50 -21,-86l0 -113c0,-36 7,-64 21,-86 20,-31 56,-47 106,-47 50,0 85,16 106,47 13,22 20,50 20,86l0 113zm-90 16l0 -144c0,-16 -4,-28 -10,-34 -7,-7 -16,-10 -26,-10 -10,0 -18,3 -24,9 -8,7 -12,19 -12,35l0 144c0,16 4,28 11,35 6,6 15,9 25,9 10,0 18,-3 24,-9 8,-7 12,-19 12,-35zm387 -4c0,34 -4,60 -14,78 -14,30 -40,44 -78,44 -15,0 -27,-2 -36,-6 -9,-4 -17,-9 -26,-14 -2,2 -3,4 -3,5l0 87c0,8 -2,13 -5,16 -3,2 -8,3 -14,3l-53 0c-8,0 -13,-2 -15,-5 -2,-3 -3,-8 -3,-14l0 -429c0,-7 1,-13 5,-15 3,-2 7,-3 13,-3l60 0c8,0 12,3 12,9l0 6c0,2 2,3 6,4 7,-6 15,-12 26,-17 10,-5 23,-7 38,-7 37,0 62,15 76,46 7,18 11,44 11,78l0 134zm-92 -3l0 -130c0,-12 -1,-21 -4,-28 -6,-11 -15,-16 -28,-16 -14,0 -23,5 -28,16 -3,7 -5,16 -5,28l0 130c0,12 2,21 5,27 5,12 14,17 28,17 13,0 22,-5 28,-17 3,-6 4,-15 4,-27zm396 101c0,8 -2,13 -5,16 -4,2 -8,3 -14,3l-50 0c-6,0 -10,-1 -13,-3 -4,-3 -5,-8 -5,-16l0 -152c-1,-3 -2,-5 -4,-5 -2,0 -4,2 -4,5l-60 154c-3,7 -6,11 -10,14 -4,2 -8,3 -13,3l-54 0c-8,0 -13,-2 -15,-5 -2,-3 -4,-8 -4,-14l0 -333c0,-7 2,-13 5,-15 4,-2 8,-3 14,-3l50 0c6,0 10,1 14,3 3,2 5,8 5,15l0 154c0,3 1,5 3,5 2,0 3,-1 4,-3l60 -156c3,-7 6,-13 10,-15 4,-2 9,-3 15,-3l52 0c6,0 10,1 14,3 3,2 5,8 5,15l0 333zm156 14c0,26 -8,46 -23,62 -16,15 -34,23 -55,23l-8 0c-5,0 -8,-1 -9,-3 -1,-3 -1,-5 -1,-8l0 -22c0,-4 2,-7 5,-8 4,-1 8,-2 13,-2 12,-4 18,-13 18,-28l0 -4c0,-3 -2,-5 -6,-5l-12 0c-8,0 -13,-2 -15,-5 -2,-3 -3,-8 -3,-14l0 -59c0,-8 1,-13 5,-15 3,-2 8,-4 13,-4l60 0c8,0 13,2 15,5 2,4 3,8 3,14l0 73z"/>
  <path class="fil0" d="M133 1037c0,18 -6,34 -19,47 -13,13 -29,19 -47,19 -19,0 -35,-6 -48,-19 -13,-13 -19,-29 -19,-47 0,-19 6,-35 19,-48 13,-13 29,-19 48,-19 18,0 34,6 47,19 13,13 19,29 19,48z"/>
  <path class="fil0" d="M636 1258c0,6 -1,11 -3,14 -2,3 -7,5 -15,5l-53 0c-6,0 -11,-1 -14,-3 -3,-3 -5,-8 -5,-16l0 -132c0,-5 -3,-8 -8,-8l-47 0c-5,0 -8,3 -8,8l0 132c0,8 -1,13 -5,16 -3,2 -8,3 -13,3l-54 0c-8,0 -13,-2 -15,-5 -2,-3 -3,-8 -3,-14l0 -333c0,-8 1,-13 5,-15 3,-2 8,-3 13,-3l54 0c5,0 10,1 13,3 4,2 5,7 5,15l0 107c0,5 3,8 8,8l47 0c5,0 8,-3 8,-8l0 -107c0,-8 2,-13 5,-15 3,-2 8,-3 14,-3l53 0c6,0 10,1 13,3 4,2 5,7 5,15l0 333zm290 -4c0,7 -1,12 -2,14 -3,6 -9,9 -18,9l-56 0c-8,0 -13,-4 -13,-11 0,-3 -1,-4 -5,-4 -3,1 -5,2 -6,3 -6,5 -14,9 -24,13 -11,3 -21,4 -30,4 -26,0 -47,-9 -64,-28 -18,-21 -27,-50 -27,-88 0,-46 15,-81 44,-106 17,-15 46,-30 87,-45l17 -6c4,-1 6,-5 6,-10 0,-10 -4,-16 -12,-20 -8,-3 -18,-5 -30,-5 -13,0 -22,1 -29,2 -7,2 -14,4 -19,5 -6,2 -10,3 -13,4 -9,3 -14,5 -16,5 -9,0 -13,-4 -13,-12l0 -41c0,-9 5,-16 15,-22 16,-9 44,-14 83,-14 50,0 85,12 105,35 13,16 20,40 20,71l0 247zm-91 -77l0 -85c0,-2 0,-4 -2,-5 -2,-1 -4,0 -7,2l-11 7c-13,8 -23,16 -28,24 -8,10 -11,24 -11,40 0,13 2,23 7,30 4,8 12,12 22,12 9,0 16,-3 22,-8 6,-5 8,-10 8,-17zm400 -13c0,37 -12,65 -35,84 -23,19 -56,29 -98,29l-107 0c-5,0 -9,-2 -12,-5 -2,-3 -4,-8 -4,-14l0 -333c0,-8 2,-13 5,-15 4,-2 8,-3 14,-3l116 0c35,0 61,9 80,28 17,17 26,37 26,62 0,19 -5,35 -15,49 -6,8 -14,16 -24,23 -1,0 -2,1 -3,2 0,1 0,1 2,2l14 8c12,7 22,16 28,28 9,15 13,33 13,55zm-111 -154c0,-10 -4,-17 -10,-23 -6,-6 -15,-9 -26,-9l-12 0c-4,0 -6,2 -6,7l0 51c0,4 2,7 6,7l16 0c10,0 18,-4 23,-10 6,-6 9,-14 9,-23zm14 149c0,-12 -4,-22 -12,-32 -8,-9 -19,-14 -33,-14l-15 0c-3,0 -5,1 -6,3 -1,2 -2,4 -2,7l0 75c0,5 2,8 6,8l15 0c15,0 27,-5 35,-14 8,-9 12,-20 12,-33zm380 95c0,7 -1,12 -2,14 -3,6 -9,9 -18,9l-56 0c-9,0 -13,-4 -13,-11 0,-3 -2,-4 -5,-4 -3,1 -5,2 -6,3 -6,5 -14,9 -24,13 -11,3 -21,4 -31,4 -25,0 -46,-9 -63,-28 -18,-21 -27,-50 -27,-88 0,-46 14,-81 44,-106 17,-15 46,-30 87,-45l17 -6c4,-1 6,-5 6,-10 0,-10 -4,-16 -12,-20 -8,-3 -18,-5 -30,-5 -13,0 -22,1 -29,2 -8,2 -14,4 -20,5 -5,2 -9,3 -13,4 -8,3 -13,5 -16,5 -8,0 -12,-4 -12,-12l0 -41c0,-9 5,-16 14,-22 17,-9 45,-14 84,-14 50,0 85,12 105,35 13,16 20,40 20,71l0 247zm-91 -77l0 -85c0,-2 -1,-4 -2,-5 -2,-1 -4,0 -7,2l-11 7c-14,8 -23,16 -28,24 -8,10 -12,24 -12,40 0,13 3,23 7,30 5,8 12,12 23,12 9,0 16,-3 22,-8 5,-5 8,-10 8,-17zm388 81c0,6 -1,11 -4,14 -2,3 -7,5 -15,5l-53 0c-6,0 -11,-1 -14,-3 -3,-3 -5,-8 -5,-16l0 -132c0,-5 -3,-8 -8,-8l-46 0c-6,0 -8,3 -8,8l0 132c0,8 -2,13 -5,16 -4,2 -8,3 -14,3l-53 0c-8,0 -13,-2 -16,-5 -2,-3 -3,-8 -3,-14l0 -333c0,-8 2,-13 5,-15 3,-2 8,-3 14,-3l53 0c6,0 10,1 14,3 3,2 5,7 5,15l0 107c0,5 2,8 8,8l46 0c5,0 8,-3 8,-8l0 -107c0,-8 2,-13 5,-15 3,-2 8,-3 14,-3l53 0c6,0 10,1 14,3 3,2 5,7 5,15l0 333zm271 -291c0,5 -1,10 -3,13 -2,4 -7,5 -15,5l-50 0c-5,0 -8,3 -8,8l0 265c0,8 -1,13 -5,16 -3,2 -7,3 -13,3l-54 0c-5,0 -10,-1 -13,-3 -3,-3 -5,-8 -5,-16l0 -265c0,-5 -3,-8 -8,-8l-49 0c-6,0 -11,-1 -14,-3 -3,-2 -5,-7 -5,-15l0 -42c0,-8 2,-13 5,-15 3,-2 8,-3 14,-3l205 0c5,0 10,1 13,3 4,2 5,7 5,15l0 42zm266 287c0,7 -1,12 -2,14 -3,6 -9,9 -18,9l-56 0c-8,0 -13,-4 -13,-11 0,-3 -1,-4 -5,-4 -3,1 -5,2 -6,3 -6,5 -14,9 -24,13 -11,3 -21,4 -31,4 -25,0 -46,-9 -63,-28 -18,-21 -27,-50 -27,-88 0,-46 15,-81 44,-106 17,-15 46,-30 87,-45l17 -6c4,-1 6,-5 6,-10 0,-10 -4,-16 -12,-20 -8,-3 -18,-5 -30,-5 -13,0 -22,1 -29,2 -7,2 -14,4 -20,5 -5,2 -9,3 -13,4 -8,3 -13,5 -15,5 -9,0 -13,-4 -13,-12l0 -41c0,-9 5,-16 15,-22 16,-9 44,-14 83,-14 50,0 85,12 105,35 13,16 20,40 20,71l0 247zm-91 -77l0 -85c0,-2 -1,-4 -2,-5 -2,-1 -4,0 -7,2l-11 7c-14,8 -23,16 -28,24 -8,10 -12,24 -12,40 0,13 3,23 7,30 5,8 13,12 23,12 9,0 16,-3 22,-8 5,-5 8,-10 8,-17zm538 -221c0,5 -1,9 -3,11 -3,2 -7,4 -11,4l-6 0c-7,0 -10,5 -10,14l0 45c0,9 -1,16 -3,22 -1,5 -4,10 -8,15 -5,4 -9,8 -13,12 0,2 8,8 23,17 14,10 22,26 22,48l0 114c0,8 -2,13 -5,16 -3,2 -8,3 -14,3l-53 0c-6,0 -10,-1 -14,-3 -3,-3 -5,-8 -5,-16l0 -96c0,-15 -3,-26 -8,-33 -6,-7 -14,-10 -24,-10l-15 0c-3,0 -5,1 -6,2 -1,2 -2,4 -2,6l0 131c0,8 -2,13 -5,16 -3,2 -8,3 -14,3l-53 0c-6,0 -10,-1 -13,-3 -4,-3 -5,-8 -5,-16l0 -131c0,-5 -3,-8 -8,-8l-16 0c-9,0 -17,3 -22,9 -6,7 -10,19 -10,34l0 96c0,8 -1,13 -5,16 -3,2 -8,3 -13,3l-54 0c-5,0 -10,-1 -13,-3 -4,-3 -5,-8 -5,-16l0 -114c0,-18 4,-32 14,-41 10,-8 20,-16 30,-24 0,-2 -1,-4 -5,-6 -3,-3 -6,-5 -7,-6 -7,-8 -11,-20 -11,-37l0 -45c0,-9 -3,-14 -11,-14l-5 0c-3,0 -5,-1 -6,-1 -6,-2 -9,-6 -9,-14l0 -31c0,-8 2,-13 5,-15 4,-2 8,-3 14,-3l35 0c18,0 33,5 45,17 13,11 19,26 19,46l0 43c0,14 3,23 8,28 4,3 9,5 15,5l7 0c5,0 8,-3 8,-8l0 -113c0,-8 1,-13 5,-15 3,-2 7,-3 13,-3l53 0c6,0 11,1 14,3 3,2 5,7 5,15l0 113c0,5 3,8 8,8l7 0c8,0 14,-3 17,-9 4,-6 6,-14 6,-24l0 -43c0,-20 6,-35 18,-46 11,-12 27,-17 45,-17l36 0c5,0 10,1 13,3 4,2 5,7 5,15l0 31zm292 -31l-75 341c-10,44 -25,73 -45,88 -19,14 -44,21 -75,21 -28,0 -47,-3 -56,-8 -5,-3 -8,-8 -8,-16l0 -50c0,-9 4,-13 12,-13 4,0 10,1 17,4 3,0 5,1 8,2 3,1 6,1 11,1 9,0 15,-2 19,-5 3,-4 5,-9 5,-16 0,-5 -1,-10 -2,-14l-79 -335c-2,-12 2,-18 13,-18l64 0c7,0 11,1 14,4 2,3 4,8 5,14l32 157c0,3 1,6 2,10 1,5 3,7 7,7 3,0 5,-6 8,-17l28 -157c2,-12 8,-18 20,-18l62 0c10,0 15,3 15,10 0,2 -1,4 -2,8zm285 239c0,37 -11,65 -34,84 -23,19 -56,29 -99,29l-107 0c-5,0 -9,-2 -11,-5 -3,-3 -4,-8 -4,-14l0 -333c0,-8 1,-13 5,-15 3,-2 8,-3 13,-3l117 0c34,0 61,9 80,28 17,17 25,37 25,62 0,19 -5,35 -15,49 -5,8 -13,16 -24,23 -1,0 -2,1 -2,2 -1,1 0,1 1,2l15 8c12,7 21,16 28,28 8,15 12,33 12,55zm-111 -154c0,-10 -3,-17 -9,-23 -7,-6 -15,-9 -26,-9l-12 0c-5,0 -7,2 -7,7l0 51c0,4 2,7 7,7l15 0c10,0 18,-4 24,-10 5,-6 8,-14 8,-23zm14 149c0,-12 -4,-22 -12,-32 -8,-9 -19,-14 -32,-14l-16 0c-3,0 -5,1 -6,3 -1,2 -1,4 -2,7l0 75c0,5 2,8 6,8l16 0c15,0 26,-5 34,-14 8,-9 12,-20 12,-33zm380 95c0,7 0,12 -2,14 -3,6 -9,9 -18,9l-56 0c-8,0 -12,-4 -12,-11 0,-3 -2,-4 -6,-4 -3,1 -5,2 -6,3 -5,5 -13,9 -24,13 -10,3 -20,4 -30,4 -26,0 -47,-9 -63,-28 -19,-21 -28,-50 -28,-88 0,-46 15,-81 44,-106 18,-15 47,-30 87,-45l17 -6c5,-1 7,-5 7,-10 0,-10 -4,-16 -13,-20 -8,-3 -18,-5 -30,-5 -12,0 -22,1 -29,2 -7,2 -14,4 -19,5 -6,2 -10,3 -13,4 -9,3 -14,5 -16,5 -9,0 -13,-4 -13,-12l0 -41c0,-9 5,-16 15,-22 16,-9 44,-14 83,-14 51,0 86,12 105,35 14,16 20,40 20,71l0 247zm-90 -77l0 -85c0,-2 -1,-4 -3,-5 -2,-1 -4,0 -7,2l-11 7c-13,8 -23,16 -28,24 -7,10 -11,24 -11,40 0,13 2,23 7,30 4,8 12,12 22,12 9,0 16,-3 22,-8 6,-5 9,-10 9,-17zm378 81c0,8 -1,13 -4,16 -4,2 -8,3 -14,3l-53 0c-8,0 -13,-2 -16,-5 -2,-3 -3,-8 -3,-14l0 -98c0,-1 -1,-2 -3,-4 -1,0 -1,0 -2,-1 -9,3 -18,5 -28,7 -11,3 -21,4 -32,4 -36,0 -62,-14 -76,-41 -8,-17 -12,-41 -12,-72l0 -128c0,-8 2,-13 5,-15 3,-2 8,-3 13,-3l54 0c6,0 10,1 13,3 4,2 5,7 5,15l0 120c0,9 1,16 4,21 5,11 14,17 28,17 21,0 31,-11 31,-34l0 -124c0,-8 2,-13 5,-15 3,-2 8,-3 14,-3l53 0c6,0 10,1 14,3 3,2 4,7 4,15l0 333zm144 -398c0,6 -1,10 -3,14 -2,3 -7,5 -15,5l-54 0c-8,0 -13,-2 -15,-5 -2,-4 -3,-8 -3,-14l0 -40c0,-6 1,-11 3,-14 2,-3 7,-5 15,-5l54 0c5,0 10,1 13,3 4,2 5,8 5,16l0 40zm0 398c0,8 -1,13 -5,16 -3,2 -8,3 -13,3l-54 0c-8,0 -13,-2 -15,-5 -2,-3 -3,-8 -3,-14l0 -333c0,-8 1,-13 5,-15 3,-2 8,-3 13,-3l54 0c5,0 10,1 13,3 4,2 5,7 5,15l0 333zm157 14c0,26 -8,46 -24,61 -15,16 -33,24 -54,24l-8 0c-5,0 -8,-1 -9,-4 -1,-2 -2,-4 -2,-8l0 -22c0,-4 2,-6 6,-7 4,-1 8,-2 12,-3 12,-3 18,-12 18,-27l0 -4c0,-3 -2,-5 -6,-5l-11 0c-8,0 -13,-2 -15,-5 -3,-3 -4,-8 -4,-14l0 -59c0,-8 2,-13 5,-15 4,-3 8,-4 14,-4l59 0c8,0 13,2 15,5 3,4 4,8 4,14l0 73z"/>
  <path class="fil0" d="M133 1847c0,19 -6,35 -19,48 -13,13 -29,19 -47,19 -19,0 -35,-6 -48,-19 -13,-13 -19,-29 -19,-48 0,-18 6,-34 19,-47 13,-13 29,-19 48,-19 18,0 34,6 47,19 13,13 19,29 19,47z"/>
  <path class="fil0" d="M642 1628c0,24 -10,41 -29,50 -12,7 -31,11 -55,13 -25,2 -43,5 -53,7 -18,5 -28,13 -28,22 0,1 1,2 2,2 1,1 1,1 2,2 8,0 14,-2 20,-5 5,-3 14,-4 28,-4 38,0 66,12 84,36 19,24 29,56 29,96l0 112c0,37 -7,65 -20,86 -21,32 -56,48 -107,48 -49,0 -84,-16 -105,-48 -14,-22 -21,-50 -21,-86l0 -127c0,-51 6,-88 19,-112 21,-39 63,-66 126,-80 9,-2 15,-4 18,-6 3,-1 6,-3 7,-6 2,-2 3,-4 4,-6 2,-2 4,-3 8,-3l60 0c7,0 11,3 11,9zm-91 347l0 -142c0,-16 -3,-27 -10,-34 -7,-6 -16,-9 -26,-9 -9,0 -17,2 -24,8 -8,8 -12,20 -12,35l0 142c0,16 4,28 12,35 6,6 14,9 24,9 10,0 18,-3 24,-9 8,-8 12,-19 12,-35zm392 -67c0,8 -2,13 -5,15 -4,3 -8,4 -14,4l-134 0c-3,0 -5,0 -6,2 -1,2 -2,3 -2,6l0 23c0,17 6,31 18,41 11,9 27,14 47,14 15,0 28,-1 39,-3 12,-2 24,-5 37,-10 11,-4 16,0 16,11l0 53c0,4 0,7 -2,9 -2,2 -5,4 -10,6 -15,5 -30,9 -45,11 -15,2 -29,3 -41,3 -38,0 -69,-7 -93,-21 -38,-22 -56,-60 -56,-113l0 -113c0,-35 7,-64 20,-85 21,-32 56,-49 106,-49 30,0 55,7 75,19 33,21 50,59 50,115l0 62zm-91 -61l0 -15c0,-12 -1,-22 -5,-29 -5,-12 -15,-17 -29,-17 -11,0 -20,3 -26,11 -7,8 -10,20 -10,35l0 15c0,4 2,6 7,6l56 0c3,0 5,-2 7,-6zm359 -69c0,5 -1,10 -3,13 -3,4 -8,5 -16,5l-49 0c-5,0 -8,3 -8,8l0 265c0,8 -2,13 -5,15 -3,3 -8,4 -14,4l-53 0c-6,0 -10,-1 -14,-4 -3,-2 -5,-7 -5,-15l0 -265c0,-5 -2,-8 -8,-8l-49 0c-6,0 -10,-1 -13,-3 -4,-2 -5,-7 -5,-15l0 -42c0,-8 1,-13 5,-15 3,-2 7,-3 13,-3l205 0c6,0 11,1 14,3 3,2 5,7 5,15l0 42zm278 181c0,36 -7,65 -20,86 -21,32 -56,48 -106,48 -50,0 -85,-16 -106,-48 -14,-21 -21,-50 -21,-86l0 -113c0,-36 7,-64 21,-86 20,-32 56,-48 106,-48 49,0 85,16 106,48 13,22 20,50 20,86l0 113zm-90 16l0 -144c0,-17 -4,-28 -11,-34 -7,-7 -15,-10 -25,-10 -10,0 -18,3 -24,9 -8,7 -12,19 -12,35l0 144c0,16 4,28 11,35 6,6 14,9 25,9 9,0 17,-3 24,-9 8,-8 12,-19 12,-35zm383 94c0,6 -1,10 -3,14 -2,3 -8,5 -16,5l-53 0c-6,0 -10,-1 -13,-4 -4,-2 -5,-7 -5,-15l0 -132c0,-5 -3,-8 -8,-8l-47 0c-5,0 -8,3 -8,8l0 132c0,8 -2,13 -5,15 -3,3 -8,4 -14,4l-53 0c-8,0 -13,-2 -15,-5 -2,-4 -4,-8 -4,-14l0 -333c0,-8 2,-13 5,-15 4,-2 8,-3 14,-3l53 0c6,0 11,1 14,3 3,2 5,7 5,15l0 107c0,5 3,8 8,8l47 0c5,0 8,-3 8,-8l0 -107c0,-8 1,-13 5,-15 3,-2 7,-3 13,-3l53 0c6,0 11,1 14,3 3,2 5,7 5,15l0 333zm302 -110c0,36 -7,65 -20,86 -21,32 -56,48 -106,48 -50,0 -85,-16 -106,-48 -14,-21 -21,-50 -21,-86l0 -113c0,-36 7,-64 21,-86 20,-32 56,-48 106,-48 49,0 85,16 106,48 13,22 20,50 20,86l0 113zm-90 16l0 -144c0,-17 -4,-28 -11,-34 -6,-7 -15,-10 -25,-10 -10,0 -18,3 -24,9 -8,7 -12,19 -12,35l0 144c0,16 4,28 11,35 6,6 15,9 25,9 10,0 18,-3 24,-9 8,-8 12,-19 12,-35zm340 2c0,30 -8,55 -24,75 -22,27 -58,41 -107,41 -25,0 -45,-2 -58,-6 -13,-4 -20,-11 -20,-23l0 -47c0,-8 4,-12 11,-12 14,0 24,2 29,4 6,3 14,4 24,4 17,0 30,-5 38,-14 7,-8 10,-16 10,-27 0,-11 -3,-20 -8,-27 -9,-12 -24,-18 -44,-18l-22 0c-8,0 -13,-2 -15,-5 -2,-4 -3,-8 -3,-14l0 -36c0,-6 1,-10 3,-14 2,-3 7,-5 15,-5l22 0c16,0 27,-3 33,-10 6,-7 9,-15 9,-25 0,-8 -3,-15 -8,-20 -7,-8 -18,-12 -32,-12 -6,0 -12,0 -17,1 -5,0 -12,1 -20,3l-11 2c-7,0 -10,-4 -10,-13l0 -42c0,-7 3,-12 11,-15 7,-3 17,-5 32,-7 14,-2 26,-3 34,-3 42,0 73,11 93,31 15,16 23,38 23,65 0,18 -3,31 -8,40 -5,10 -12,18 -21,25 -4,2 -7,5 -9,6 -3,2 -4,3 -4,4 0,2 3,4 8,7 5,3 8,5 9,5 10,8 18,17 24,27 8,16 13,34 13,55zm341 92c0,6 -1,10 -3,14 -2,3 -7,5 -15,5l-50 0c-6,0 -11,-1 -14,-4 -3,-2 -5,-7 -5,-15l0 -146c-1,-3 -2,-5 -2,-5 -4,3 -5,4 -5,5l-30 66c-2,4 -4,8 -6,10 -3,4 -7,6 -12,6l-12 0c-4,0 -8,-2 -12,-6 -2,-2 -4,-6 -6,-10l-31 -68c-1,-2 -2,-4 -4,-4l-2 4 0 148c0,8 -2,13 -5,15 -4,3 -8,4 -14,4l-50 0c-8,0 -13,-2 -15,-5 -2,-4 -4,-8 -4,-14l0 -333c0,-8 2,-13 5,-15 4,-2 8,-3 14,-3l50 0c5,0 9,0 12,1 2,1 4,5 7,11l55 132c1,5 3,7 6,7 2,0 4,-2 5,-7l56 -133c3,-6 5,-9 7,-10 2,-1 6,-1 12,-1l50 0c6,0 10,1 13,3 4,2 5,7 5,15l0 333zm144 -398c0,6 -1,10 -3,14 -2,3 -7,5 -15,5l-54 0c-8,0 -13,-2 -15,-5 -2,-4 -3,-8 -3,-14l0 -41c0,-5 1,-10 3,-13 2,-4 7,-5 15,-5l54 0c5,0 10,1 13,3 4,2 5,7 5,15l0 41zm0 398c0,8 -1,13 -5,15 -3,3 -8,4 -13,4l-54 0c-8,0 -13,-2 -15,-5 -2,-4 -3,-8 -3,-14l0 -333c0,-8 1,-13 5,-15 3,-2 8,-3 13,-3l54 0c5,0 10,1 13,3 4,2 5,7 5,15l0 333zm441 0c0,6 -1,10 -3,14 -3,3 -8,5 -16,5l-350 0c-8,0 -13,-2 -15,-5 -2,-4 -4,-8 -4,-14l0 -333c0,-8 2,-13 5,-15 4,-2 8,-3 14,-3l53 0c6,0 11,1 14,3 3,2 5,7 5,15l0 271c0,5 3,8 8,8l42 0c5,0 8,-3 8,-8l0 -271c0,-8 2,-13 5,-15 3,-2 8,-3 14,-3l53 0c6,0 10,1 13,3 4,2 5,7 5,15l0 269c0,6 3,10 9,10l41 0c6,0 8,-3 8,-8l0 -271c0,-8 2,-13 5,-15 4,-2 8,-3 14,-3l53 0c6,0 11,1 14,3 3,2 5,7 5,15l0 333zm299 -333l-75 341c-10,44 -25,73 -46,88 -18,14 -43,21 -75,21 -28,0 -47,-3 -56,-8 -5,-3 -7,-8 -7,-16l0 -50c0,-9 4,-13 12,-13 3,0 9,1 16,4 3,0 6,1 8,2 3,0 7,1 11,1 9,0 16,-2 19,-6 3,-3 5,-8 5,-15 0,-5 -1,-10 -2,-14l-79 -335c-2,-12 2,-18 13,-18l64 0c7,0 12,1 14,4 2,3 4,7 5,14l32 157c1,2 1,6 2,10 1,5 3,7 7,7 3,0 6,-6 8,-17l29 -157c1,-12 8,-18 19,-18l62 0c10,0 15,3 15,10 0,1 0,4 -1,8zm285 239c0,37 -12,65 -35,84 -23,19 -56,29 -98,29l-108 0c-5,0 -8,-2 -11,-5 -3,-3 -4,-8 -4,-14l0 -333c0,-8 2,-13 5,-15 3,-2 8,-3 14,-3l116 0c34,0 61,9 80,28 17,16 25,37 25,62 0,19 -5,35 -14,49 -6,8 -14,16 -24,22 -2,1 -2,2 -3,3 0,0 0,1 1,1l15 8c12,8 21,17 28,29 8,15 13,33 13,55zm-112 -154c0,-10 -3,-17 -9,-23 -7,-6 -15,-9 -26,-9l-12 0c-4,0 -6,2 -6,6l0 52c0,4 2,6 6,6l16 0c10,0 18,-3 23,-9 6,-7 8,-14 8,-23zm14 149c0,-12 -4,-23 -12,-32 -8,-9 -18,-14 -32,-14l-15 0c-4,0 -6,1 -6,3 -1,2 -2,4 -2,6l0 75c0,6 2,9 6,9l15 0c15,0 26,-5 34,-14 8,-9 12,-20 12,-33zm381 94c0,8 -1,12 -2,15 -4,6 -10,9 -18,9l-56 0c-9,0 -13,-4 -13,-11 0,-3 -2,-5 -5,-5 -3,2 -5,3 -6,4 -6,5 -14,9 -25,12 -10,4 -20,5 -30,5 -26,0 -47,-9 -63,-28 -18,-21 -27,-50 -27,-88 0,-46 14,-81 44,-106 17,-15 46,-30 87,-45l16 -6c5,-2 7,-5 7,-10 0,-10 -4,-16 -12,-20 -9,-3 -19,-5 -31,-5 -12,0 -22,1 -28,2 -8,2 -14,4 -20,5 -5,2 -10,3 -13,4 -8,3 -14,5 -16,5 -8,0 -12,-4 -12,-12l0 -41c0,-9 4,-16 14,-22 17,-9 44,-14 83,-14 51,0 86,12 106,35 13,16 20,39 20,71l0 246zm-91 -76l0 -85c0,-2 -1,-4 -3,-5 -1,-1 -4,0 -6,1l-12 8c-13,8 -22,16 -28,24 -7,10 -11,24 -11,40 0,13 2,23 7,30 5,8 12,12 22,12 9,0 17,-3 22,-8 6,-5 9,-10 9,-17zm379 81c0,8 -2,13 -5,15 -4,3 -8,4 -14,4l-53 0c-8,0 -13,-2 -15,-5 -3,-4 -4,-8 -4,-14l0 -98c0,-1 -1,-3 -3,-4 -1,0 -1,-1 -1,-1 -9,3 -19,5 -29,7 -10,3 -21,4 -31,4 -37,0 -62,-14 -76,-41 -9,-17 -13,-41 -13,-73l0 -127c0,-8 2,-13 5,-15 3,-2 8,-3 14,-3l53 0c6,0 10,1 14,3 3,2 5,7 5,15l0 120c0,9 1,16 3,21 5,11 15,17 28,17 21,0 31,-11 31,-35l0 -123c0,-8 2,-13 5,-15 4,-2 8,-3 14,-3l53 0c6,0 10,1 14,3 3,2 5,7 5,15l0 333zm144 -398c0,6 -2,10 -4,14 -2,3 -7,5 -15,5l-53 0c-8,0 -13,-2 -16,-5 -2,-4 -3,-8 -3,-14l0 -41c0,-5 1,-10 3,-13 3,-4 8,-5 16,-5l53 0c6,0 10,1 14,3 3,2 5,7 5,15l0 41zm0 398c0,8 -2,13 -5,15 -4,3 -8,4 -14,4l-53 0c-8,0 -13,-2 -16,-5 -2,-4 -3,-8 -3,-14l0 -333c0,-8 2,-13 5,-15 3,-2 8,-3 14,-3l53 0c6,0 10,1 14,3 3,2 5,7 5,15l0 333z"/>
  <path class="fil0" d="M611 2588c0,6 -1,11 -3,14 -2,3 -8,5 -16,5l-49 0c-5,0 -8,3 -8,8l0 265c0,8 -1,13 -5,15 -3,3 -8,4 -13,4l-54 0c-5,0 -10,-1 -13,-4 -4,-2 -5,-7 -5,-15l0 -265c0,-5 -3,-8 -8,-8l-50 0c-5,0 -10,-1 -13,-3 -4,-2 -5,-8 -5,-16l0 -41c0,-8 1,-13 5,-15 3,-2 8,-3 13,-3l205 0c6,0 11,1 14,3 3,2 5,7 5,15l0 41zm266 287c0,7 -1,12 -2,15 -3,6 -9,9 -18,9l-56 0c-9,0 -13,-4 -13,-11 0,-3 -2,-5 -5,-5 -3,2 -5,3 -6,4 -6,5 -14,9 -24,12 -11,3 -21,5 -31,5 -25,0 -47,-9 -63,-28 -18,-21 -27,-50 -27,-88 0,-46 14,-81 44,-106 17,-15 46,-30 87,-45l17 -6c4,-2 6,-5 6,-11 0,-9 -4,-15 -12,-19 -8,-3 -18,-5 -30,-5 -13,0 -22,0 -29,2 -8,2 -14,4 -20,5 -5,1 -10,3 -13,4 -8,3 -13,5 -16,5 -8,0 -12,-4 -12,-12l0 -41c0,-9 5,-16 14,-22 17,-9 45,-14 84,-14 50,0 85,12 105,35 13,16 20,39 20,70l0 247zm-91 -76l0 -85c0,-3 -1,-4 -2,-5 -2,-1 -4,0 -7,1l-11 8c-14,8 -23,16 -28,24 -8,10 -12,24 -12,40 0,13 3,23 7,30 5,8 12,11 23,11 8,0 16,-2 22,-7 5,-5 8,-10 8,-17zm434 -317c0,6 -1,10 -3,14 -2,3 -7,5 -15,5l-54 0c-8,0 -13,-2 -15,-5 -2,-4 -3,-8 -3,-14l0 -41c0,-5 1,-10 3,-13 2,-4 7,-5 15,-5l54 0c5,0 10,1 13,3 4,2 5,7 5,15l0 41zm0 398c0,8 -1,13 -5,15 -3,3 -8,4 -13,4l-54 0c-8,0 -13,-2 -15,-5 -2,-4 -3,-8 -3,-14l0 -333c0,-8 1,-13 5,-15 3,-2 8,-3 13,-3l54 0c5,0 10,1 13,3 4,2 5,7 5,15l0 333zm297 0c0,6 -1,10 -3,14 -2,3 -8,5 -16,5l-53 0c-6,0 -10,-1 -13,-4 -4,-2 -5,-7 -5,-15l0 -132c0,-5 -3,-8 -8,-8l-47 0c-5,0 -8,3 -8,8l0 132c0,8 -2,13 -5,15 -3,3 -8,4 -14,4l-53 0c-8,0 -13,-2 -15,-5 -2,-4 -4,-8 -4,-14l0 -333c0,-8 2,-13 5,-15 4,-2 8,-3 14,-3l53 0c6,0 11,1 14,3 3,2 5,7 5,15l0 107c0,5 3,8 8,8l47 0c5,0 8,-3 8,-8l0 -107c0,-8 1,-13 5,-15 3,-2 7,-3 13,-3l53 0c6,0 11,1 14,3 3,2 5,7 5,15l0 333zm441 0c0,6 -1,10 -4,14 -2,3 -7,5 -15,5l-350 0c-8,0 -13,-2 -15,-5 -3,-4 -4,-8 -4,-14l0 -333c0,-8 2,-13 5,-15 4,-2 8,-3 14,-3l53 0c6,0 11,1 14,3 3,2 5,7 5,15l0 270c0,6 3,8 8,8l42 0c5,0 8,-2 8,-8l0 -270c0,-8 1,-13 5,-15 3,-2 8,-3 13,-3l54 0c5,0 10,1 13,3 4,2 5,7 5,15l0 268c0,7 3,10 9,10l41 0c6,0 8,-2 8,-8l0 -270c0,-8 2,-13 5,-15 4,-2 8,-3 14,-3l53 0c6,0 10,1 14,3 3,2 5,7 5,15l0 333zm144 -398c0,6 -2,10 -4,14 -2,3 -7,5 -15,5l-53 0c-8,0 -13,-2 -16,-5 -2,-4 -3,-8 -3,-14l0 -41c0,-5 1,-10 3,-13 3,-4 8,-5 16,-5l53 0c6,0 10,1 14,3 3,2 5,7 5,15l0 41zm0 398c0,8 -2,13 -5,15 -4,3 -8,4 -14,4l-53 0c-8,0 -13,-2 -16,-5 -2,-4 -3,-8 -3,-14l0 -333c0,-8 2,-13 5,-15 3,-2 8,-3 14,-3l53 0c6,0 10,1 14,3 3,2 5,7 5,15l0 333z"/>
 </g>
</svg>
