<?xml version="1.0" encoding="UTF-8"?>
<!DOCTYPE svg PUBLIC "-//W3C//DTD SVG 1.1//EN" "http://www.w3.org/Graphics/SVG/1.1/DTD/svg11.dtd">
<!-- Creator: CorelDRAW X7 -->
<svg xmlns="http://www.w3.org/2000/svg" xml:space="preserve" width="79.2771mm" height="30.2277mm" version="1.1" style="shape-rendering:geometricPrecision; text-rendering:geometricPrecision; image-rendering:optimizeQuality; fill-rule:evenodd; clip-rule:evenodd"
viewBox="0 0 7928 3023"
 xmlns:xlink="http://www.w3.org/1999/xlink">
 <defs>
  <style type="text/css">
   <![CDATA[
    .fil0 {fill:#727271;fill-rule:nonzero}
   ]]>
  </style>
 </defs>
 <g id="Слой_x0020_1">
  <metadata id="CorelCorpID_0Corel-Layer"/>
  <path class="fil0" d="M1346 406c0,10 -2,15 -6,18 -3,2 -8,3 -15,3l-47 0c-7,0 -12,0 -14,-2 -5,-3 -7,-9 -7,-19l0 -376c0,-7 1,-12 2,-14 4,-5 10,-7 19,-7l47 0c9,0 15,2 17,5 2,3 4,9 4,16l0 376zm314 5c0,5 -1,9 -3,12 -2,3 -7,4 -14,4l-45 0c-5,0 -9,-1 -12,-3 -3,-2 -4,-6 -4,-13l0 -132c-1,-3 -2,-4 -3,-4 -3,2 -4,4 -4,5l-27 58c-2,5 -4,8 -5,10 -3,3 -7,5 -11,5l-11 0c-4,0 -7,-2 -11,-5 -1,-2 -3,-5 -5,-10l-27 -60c-1,-2 -3,-4 -5,-4l-1 4 0 133c0,7 -2,11 -5,13 -3,2 -7,3 -12,3l-45 0c-7,0 -12,-1 -14,-4 -2,-3 -3,-7 -3,-12l0 -299c0,-7 2,-12 5,-14 3,-2 7,-3 12,-3l44 0c6,0 9,1 11,2 3,1 5,4 7,9l49 119c1,4 3,6 5,6 2,0 4,-2 5,-6l51 -120c2,-5 4,-8 6,-9 2,-1 5,-1 10,-1l45 0c5,0 9,1 12,3 3,2 5,7 5,14l0 299zm265 0c0,7 -1,11 -4,13 -3,2 -7,3 -12,3l-48 0c-5,0 -10,-1 -13,-3 -3,-2 -4,-6 -4,-13l0 -240c0,-4 -2,-7 -5,-7l-45 0c-2,0 -3,1 -4,2 -1,2 -1,3 -1,5l0 240c0,7 -1,11 -4,13 -3,2 -8,3 -13,3l-48 0c-7,0 -11,-1 -13,-4 -2,-3 -3,-7 -3,-12l0 -299c0,-7 1,-12 4,-14 3,-2 7,-3 12,-3l185 0c5,0 9,1 12,3 3,2 4,7 4,14l0 299zm272 -99c0,32 -7,58 -19,77 -18,29 -50,43 -95,43 -45,0 -76,-14 -95,-43 -12,-19 -19,-45 -19,-77l0 -102c0,-32 7,-58 19,-77 18,-28 50,-43 95,-43 45,0 76,15 95,43 12,19 19,45 19,77l0 102zm-82 14l0 -129c0,-15 -3,-25 -9,-31 -6,-6 -14,-9 -23,-9 -9,0 -16,3 -21,8 -8,7 -11,17 -11,32l0 129c0,14 3,25 10,31 6,6 13,8 22,8 9,0 16,-2 22,-8 7,-6 10,-17 10,-31zm348 -3c0,30 -4,53 -12,70 -14,26 -37,39 -70,39 -14,0 -25,-2 -33,-5 -8,-4 -15,-8 -23,-13 -2,2 -3,3 -3,4l0 79c0,7 -1,11 -4,13 -3,2 -7,3 -13,3l-47 0c-8,0 -12,-1 -14,-4 -2,-3 -3,-7 -3,-12l0 -385c0,-7 1,-12 4,-14 3,-2 7,-3 12,-3l54 0c8,0 11,3 11,8l0 5c0,2 2,4 6,4 6,-6 13,-11 23,-15 9,-5 20,-7 34,-7 33,0 56,14 68,42 7,16 10,39 10,70l0 121zm-82 -3l0 -117c0,-11 -2,-19 -4,-25 -5,-10 -14,-15 -26,-15 -12,0 -20,5 -25,15 -2,6 -4,14 -4,25l0 117c0,10 2,18 4,24 5,10 13,15 25,15 12,0 21,-5 26,-15 2,-6 4,-14 4,-24zm326 -171c0,5 -1,9 -3,12 -2,3 -7,5 -14,5l-44 0c-5,0 -7,2 -7,7l0 238c0,7 -2,11 -5,13 -3,2 -7,3 -12,3l-48 0c-5,0 -9,-1 -12,-3 -3,-2 -4,-6 -4,-13l0 -238c0,-5 -3,-7 -8,-7l-44 0c-5,0 -9,-1 -12,-3 -3,-2 -5,-7 -5,-14l0 -37c0,-7 2,-12 5,-14 3,-2 7,-3 12,-3l184 0c5,0 10,1 13,3 3,2 4,7 4,14l0 37zm119 274c0,23 -7,41 -21,55 -14,14 -30,21 -49,21l-7 0c-5,0 -7,-1 -8,-3 -1,-2 -2,-4 -2,-7l0 -20c0,-3 2,-6 5,-6 4,-1 7,-2 11,-3 11,-3 17,-11 17,-25l0 -3c0,-3 -2,-5 -6,-5l-10 0c-7,0 -12,-1 -14,-4 -2,-3 -3,-7 -3,-12l0 -54c0,-7 2,-11 5,-13 3,-2 7,-3 12,-3l53 0c7,0 12,1 14,4 2,3 3,7 3,12l0 66zm458 -157c0,7 -1,12 -4,14 -3,2 -7,3 -12,3l-120 0c-3,0 -5,0 -6,2 -1,1 -2,3 -2,5l0 20c0,16 6,29 16,37 10,9 25,13 43,13 13,0 24,0 35,-2 10,-2 21,-5 32,-10 10,-3 15,0 15,10l0 48c0,3 0,6 -2,8 -1,2 -4,3 -9,5 -13,5 -26,9 -40,10 -14,2 -26,3 -36,3 -35,0 -63,-6 -85,-19 -33,-20 -50,-54 -50,-102l0 -101c0,-31 6,-57 19,-76 18,-29 50,-44 95,-44 27,0 49,6 67,17 29,19 44,53 44,103l0 56zm-81 -55l0 -13c0,-11 -1,-20 -4,-26 -5,-11 -14,-16 -26,-16 -11,0 -19,3 -24,10 -6,7 -9,18 -9,32l0 13c0,4 2,6 6,6l51 0c3,0 5,-2 6,-6zm347 -72c0,5 -1,8 -4,10 -2,2 -5,3 -9,3l-5 0c-7,0 -10,5 -10,14l0 40c0,6 0,12 -2,18 -1,6 -4,10 -7,14 -1,2 -4,4 -7,6 -3,2 -4,4 -4,5 10,5 19,13 27,22 8,9 12,21 12,37l0 103c0,7 -1,11 -4,13 -3,2 -7,3 -12,3l-48 0c-5,0 -9,-1 -12,-3 -3,-2 -5,-6 -5,-13l0 -86c0,-14 -2,-24 -8,-30 -5,-6 -12,-9 -21,-9l-13 0c-3,0 -5,0 -6,2 -1,1 -2,3 -2,5l0 118c0,7 -1,11 -4,13 -3,2 -7,3 -12,3l-48 0c-7,0 -12,-1 -14,-4 -2,-3 -3,-7 -3,-12l0 -299c0,-7 2,-12 5,-14 3,-2 7,-3 12,-3l48 0c5,0 9,1 12,3 3,2 4,7 4,14l0 101c0,5 3,7 8,7l6 0c7,0 12,-3 15,-8 4,-6 6,-13 6,-21l0 -39c0,-19 5,-33 15,-42 10,-10 24,-15 41,-15l32 0c5,0 9,1 12,3 3,2 5,7 5,14l0 27zm224 270c0,8 -3,13 -8,15 -9,6 -28,8 -57,8 -53,0 -88,-15 -106,-45 -10,-17 -14,-42 -14,-77l0 -103c0,-35 6,-61 19,-78 18,-26 52,-39 101,-39 29,0 48,3 57,8 5,3 8,8 8,15l0 48c0,8 -4,12 -11,12 -7,0 -15,-1 -24,-4 -9,-2 -17,-3 -24,-3 -18,0 -31,6 -38,17 -5,7 -7,19 -7,34l0 88c0,14 2,25 6,32 7,13 20,19 39,19l27 -3c3,0 7,-1 11,-2 4,-1 8,-1 10,-1 5,0 7,1 9,3 1,3 2,5 2,9l0 47zm259 2c0,7 -1,11 -4,13 -3,2 -7,3 -12,3l-48 0c-5,0 -10,-1 -13,-3 -3,-2 -4,-6 -4,-13l0 -240c0,-4 -2,-7 -5,-7l-45 0c-2,0 -3,1 -4,2 -1,2 -1,3 -1,5l0 240c0,7 -2,11 -4,13 -3,2 -8,3 -13,3l-48 0c-7,0 -11,-1 -13,-4 -2,-3 -3,-7 -3,-12l0 -299c0,-7 1,-12 4,-14 3,-2 7,-3 12,-3l185 0c5,0 9,1 12,3 3,2 4,7 4,14l0 299zm272 -99c0,32 -7,58 -19,77 -18,29 -50,43 -95,43 -45,0 -76,-14 -95,-43 -12,-19 -19,-45 -19,-77l0 -102c0,-32 7,-58 19,-77 18,-28 50,-43 95,-43 45,0 76,15 95,43 12,19 19,45 19,77l0 102zm-82 14l0 -129c0,-15 -3,-25 -9,-31 -6,-6 -14,-9 -23,-9 -9,0 -16,3 -21,8 -8,7 -11,17 -11,32l0 129c0,14 3,25 10,31 6,6 13,8 22,8 9,0 16,-2 22,-8 7,-6 10,-17 10,-31zm348 -3c0,30 -4,53 -12,70 -14,26 -37,39 -70,39 -14,0 -25,-2 -33,-5 -8,-4 -15,-8 -23,-13 -2,2 -3,3 -3,4l0 79c0,7 -1,11 -4,13 -3,2 -7,3 -13,3l-47 0c-8,0 -12,-1 -14,-4 -2,-3 -3,-7 -3,-12l0 -385c0,-7 1,-12 4,-14 3,-2 7,-3 12,-3l54 0c8,0 11,3 11,8l0 5c0,2 2,4 5,4 7,-6 14,-11 24,-15 9,-5 20,-7 34,-7 33,0 56,14 68,42 7,16 10,39 10,70l0 121zm-82 -3l0 -117c0,-11 -2,-19 -4,-25 -5,-10 -14,-15 -26,-15 -12,0 -20,5 -25,15 -2,6 -4,14 -4,25l0 117c0,10 2,18 4,24 5,10 13,15 25,15 12,0 21,-5 26,-15 2,-6 4,-14 4,-24zm326 -171c0,5 -1,9 -3,12 -2,3 -7,5 -14,5l-44 0c-5,0 -7,2 -7,7l0 238c0,7 -2,11 -5,13 -3,2 -7,3 -12,3l-48 0c-5,0 -9,-1 -12,-3 -3,-2 -4,-6 -4,-13l0 -238c0,-5 -3,-7 -8,-7l-44 0c-5,0 -9,-1 -12,-3 -3,-2 -5,-7 -5,-14l0 -37c0,-7 2,-12 5,-14 3,-2 7,-3 12,-3l184 0c5,0 10,1 13,3 3,2 4,7 4,14l0 37zm402 0c0,5 -1,9 -3,12 -2,3 -7,5 -14,5l-44 0c-5,0 -7,2 -7,7l0 238c0,7 -2,11 -5,13 -3,2 -7,3 -12,3l-48 0c-5,0 -9,-1 -12,-3 -3,-2 -5,-6 -5,-13l0 -238c0,-5 -2,-7 -7,-7l-44 0c-5,0 -9,-1 -12,-3 -3,-2 -5,-7 -5,-14l0 -37c0,-7 2,-12 5,-14 3,-2 7,-3 12,-3l184 0c5,0 9,1 12,3 3,2 5,7 5,14l0 37zm251 117c0,7 -1,12 -4,14 -3,2 -7,3 -12,3l-121 0c-2,0 -4,0 -5,2 -1,1 -2,3 -2,5l0 20c0,16 5,29 16,37 10,9 24,13 43,13 13,0 24,0 34,-2 11,-2 22,-5 33,-10 10,-3 15,0 15,10l0 48c0,3 0,6 -2,8 -1,2 -4,3 -9,5 -13,5 -27,9 -40,10 -14,2 -26,3 -37,3 -34,0 -62,-6 -84,-19 -33,-20 -50,-54 -50,-102l0 -101c0,-31 6,-57 18,-76 19,-29 51,-44 96,-44 27,0 49,6 66,17 30,19 45,53 45,103l0 56zm-81 -55l0 -13c0,-11 -1,-20 -4,-26 -5,-11 -14,-16 -26,-16 -11,0 -19,3 -24,10 -6,7 -9,18 -9,32l0 13c0,4 2,6 6,6l51 0c2,0 4,-2 6,-6zm356 210c0,3 -2,4 -4,5 -3,1 -7,1 -11,1l-54 0c-5,0 -8,0 -11,-2 -3,-1 -5,-3 -6,-6l-35 -74c-2,-3 -3,-4 -4,-4l-3 4 -31 66c-4,6 -7,11 -11,13 -3,2 -8,3 -13,3l-57 0c-7,0 -11,-3 -11,-9 0,-3 1,-5 2,-7l73 -150 3 -8 -4 -9 -63 -134c-1,-2 -2,-5 -2,-7 0,-3 2,-5 5,-6 3,-1 6,-2 9,-2l57 0c9,0 16,5 21,15l21 48c2,4 4,6 6,6 2,0 4,-2 6,-7l22 -47c4,-10 11,-15 19,-15l60 0c8,0 13,2 13,7 0,2 -1,5 -3,8l-67 136c-2,4 -3,7 -3,10 1,3 2,5 3,8l70 147c2,4 3,7 3,10zm245 -10c0,5 -1,9 -3,12 -2,3 -6,4 -13,4l-48 0c-5,0 -10,-1 -13,-3 -3,-2 -4,-6 -4,-13l0 -119c0,-5 -2,-7 -7,-7l-42 0c-5,0 -7,2 -7,7l0 119c0,7 -2,11 -5,13 -3,2 -7,3 -12,3l-48 0c-7,0 -12,-1 -14,-4 -2,-3 -2,-7 -2,-12l0 -299c0,-7 1,-12 4,-14 3,-2 7,-3 12,-3l48 0c5,0 9,1 12,3 3,2 5,7 5,14l0 95c0,5 2,8 7,8l42 0c5,0 7,-3 7,-8l0 -95c0,-7 1,-12 4,-14 3,-2 8,-3 13,-3l48 0c5,0 9,1 12,3 3,2 4,7 4,14l0 299zm129 -358c0,5 -1,9 -3,12 -2,3 -6,5 -13,5l-48 0c-7,0 -12,-2 -14,-5 -2,-3 -3,-7 -3,-12l0 -36c0,-5 1,-10 3,-13 2,-2 7,-4 14,-4l48 0c5,0 9,1 12,3 3,2 4,7 4,14l0 36zm0 358c0,7 -1,11 -4,13 -3,2 -7,3 -12,3l-48 0c-7,0 -12,-1 -14,-4 -2,-3 -3,-7 -3,-12l0 -299c0,-7 2,-12 5,-14 3,-2 7,-3 12,-3l48 0c5,0 9,1 12,3 3,2 4,7 4,14l0 299zm269 -272c0,5 -1,8 -4,10 -2,2 -5,3 -9,3l-5 0c-7,0 -10,5 -10,14l0 40c0,6 0,12 -2,18 -1,6 -4,10 -7,14 -1,2 -4,4 -7,6 -3,2 -4,4 -4,5 10,5 19,13 27,22 8,9 12,21 12,37l0 103c0,7 -1,11 -4,13 -3,2 -7,3 -12,3l-48 0c-5,0 -9,-1 -12,-3 -3,-2 -5,-6 -5,-13l0 -86c0,-14 -3,-24 -8,-30 -5,-6 -12,-9 -21,-9l-13 0c-3,0 -5,0 -6,2 -1,1 -2,3 -2,5l0 118c0,7 -1,11 -4,13 -3,2 -7,3 -12,3l-48 0c-7,0 -12,-1 -14,-4 -2,-3 -3,-7 -3,-12l0 -299c0,-7 2,-12 5,-14 3,-2 7,-3 12,-3l48 0c5,0 9,1 12,3 3,2 4,7 4,14l0 101c0,5 3,7 8,7l6 0c7,0 12,-3 15,-8 4,-6 6,-13 6,-21l0 -39c0,-19 5,-33 15,-42 10,-10 24,-15 41,-15l32 0c5,0 9,1 12,3 3,2 5,7 5,14l0 27zm266 272c0,7 -1,11 -4,13 -3,2 -7,3 -12,3l-45 0c-5,0 -10,-1 -13,-3 -3,-2 -4,-6 -4,-13l0 -137c-1,-3 -2,-4 -3,-4 -2,0 -3,1 -4,4l-54 138c-2,6 -5,10 -9,12 -3,2 -7,3 -11,3l-49 0c-7,0 -11,-1 -13,-4 -2,-3 -3,-7 -3,-12l0 -299c0,-7 1,-12 4,-14 3,-2 7,-3 12,-3l45 0c5,0 9,1 12,3 3,2 5,7 5,14l0 137c0,3 1,5 3,5 1,0 3,-1 3,-3l54 -139c3,-7 6,-12 9,-14 4,-2 8,-3 13,-3l48 0c5,0 9,1 12,3 3,2 4,7 4,14l0 299z"/>
  <path class="fil0" d="M1985 776c0,5 -1,9 -3,12 -2,3 -7,4 -14,4l-44 0c-5,0 -7,3 -7,7l0 238c0,8 -2,12 -5,14 -3,2 -7,3 -12,3l-48 0c-5,0 -9,-1 -12,-3 -3,-2 -5,-6 -5,-14l0 -238c0,-4 -2,-7 -7,-7l-44 0c-5,0 -9,-1 -12,-3 -3,-2 -5,-6 -5,-13l0 -37c0,-8 2,-12 5,-14 3,-2 7,-3 12,-3l184 0c5,0 9,1 12,3 3,2 5,6 5,14l0 37zm238 257c0,7 0,11 -2,13 -2,5 -8,8 -16,8l-50 0c-7,0 -11,-3 -11,-9 0,-3 -2,-5 -5,-5 -3,2 -5,3 -5,3 -6,5 -13,9 -22,12 -10,2 -19,4 -27,4 -24,0 -42,-9 -57,-25 -17,-19 -25,-45 -25,-80 0,-40 13,-72 40,-95 15,-13 41,-26 78,-40l15 -5c4,-2 6,-5 6,-10 0,-8 -4,-14 -11,-17 -7,-3 -17,-5 -27,-5 -11,0 -20,1 -26,2 -7,2 -13,4 -18,5 -5,1 -9,2 -11,3 -8,3 -13,4 -15,4 -7,0 -11,-3 -11,-10l0 -37c0,-8 4,-14 13,-19 15,-9 40,-13 75,-13 45,0 77,10 94,31 12,14 18,36 18,63l0 222zm-81 -69l0 -76c0,-2 -1,-3 -2,-4 -2,-1 -4,-1 -6,1l-11 7c-12,7 -20,14 -25,21 -6,10 -10,22 -10,36 0,12 2,21 6,27 5,7 11,11 20,11 8,0 15,-3 20,-7 5,-4 8,-10 8,-16zm529 -198c0,4 -1,8 -3,10 -3,2 -6,3 -10,3l-5 0c-6,0 -10,5 -10,13l0 40c0,7 0,13 -2,19 -1,5 -3,10 -7,14 -1,2 -3,4 -6,6 -3,2 -5,3 -5,5 10,5 20,12 28,21 8,10 12,22 12,38l0 102c0,8 -2,12 -5,14 -3,2 -7,3 -12,3l-48 0c-5,0 -9,-1 -12,-3 -3,-2 -5,-6 -5,-14l0 -86c0,-14 -2,-24 -8,-30 -5,-6 -12,-9 -20,-9l-14 0c-3,0 -5,1 -6,3 -1,1 -1,3 -1,5l0 117c0,8 -2,12 -5,14 -3,2 -7,3 -12,3l-48 0c-7,0 -12,-1 -14,-4 -2,-3 -3,-7 -3,-13l0 -298c0,-8 2,-12 5,-14 3,-2 7,-3 12,-3l48 0c5,0 9,1 12,3 3,2 5,6 5,14l0 101c0,4 2,7 7,7l6 0c7,0 12,-3 16,-8 3,-6 5,-13 5,-22l0 -38c0,-19 5,-33 15,-43 10,-9 24,-14 41,-14l32 0c5,0 9,1 12,3 3,2 5,6 5,14l0 27zm265 173c0,32 -6,58 -18,77 -19,29 -50,43 -95,43 -45,0 -77,-14 -95,-43 -13,-19 -19,-45 -19,-77l0 -102c0,-32 6,-58 19,-77 18,-29 50,-43 95,-43 44,0 76,14 95,43 12,19 18,45 18,77l0 102zm-81 13l0 -129c0,-14 -3,-25 -9,-30 -6,-6 -14,-9 -23,-9 -9,0 -16,3 -22,8 -7,6 -11,17 -11,31l0 129c0,15 4,26 11,32 5,5 13,8 22,8 8,0 16,-3 21,-8 7,-7 11,-17 11,-32zm392 85c0,6 -1,10 -3,13 -2,3 -7,4 -14,4l-45 0c-5,0 -9,-1 -12,-3 -3,-2 -4,-6 -4,-14l0 -131c-1,-3 -2,-4 -3,-4 -2,2 -4,4 -4,4l-27 59c-2,4 -4,8 -5,10 -3,3 -6,5 -11,5l-11 0c-4,0 -7,-2 -10,-5 -2,-2 -4,-6 -6,-10l-27 -60c-1,-3 -2,-4 -4,-4l-2 4 0 132c0,8 -2,12 -5,14 -3,2 -7,3 -12,3l-45 0c-7,0 -12,-1 -14,-4 -2,-3 -3,-7 -3,-13l0 -298c0,-8 2,-12 5,-14 3,-2 7,-3 12,-3l45 0c5,0 8,0 10,1 3,1 5,5 7,10l49 118c1,4 3,6 5,6 2,0 4,-2 5,-6l51 -119c2,-5 4,-8 6,-9 2,-1 5,-1 10,-1l45 0c5,0 10,1 13,3 3,2 4,6 4,14l0 298zm265 0c0,8 -1,12 -4,14 -3,2 -7,3 -12,3l-48 0c-5,0 -9,-1 -12,-3 -3,-2 -5,-6 -5,-14l0 -239c0,-5 -2,-7 -5,-7l-44 0c-2,0 -4,1 -5,2 0,2 -1,3 -1,5l0 239c0,8 -1,12 -4,14 -3,2 -7,3 -13,3l-47 0c-8,0 -12,-1 -14,-4 -2,-3 -3,-7 -3,-13l0 -298c0,-8 1,-12 4,-14 3,-2 7,-3 13,-3l184 0c5,0 9,1 12,3 3,2 4,6 4,14l0 298zm284 0c0,6 -1,10 -3,13 -2,3 -6,4 -13,4l-48 0c-5,0 -10,-1 -13,-3 -3,-2 -4,-6 -4,-14l0 -238c0,-5 -3,-7 -8,-7l-26 0c-5,0 -7,2 -7,6l0 53c0,76 -5,128 -16,155 -14,35 -44,53 -89,53 -11,0 -20,-1 -25,-3 -5,-1 -8,-5 -8,-12l0 -37c0,-7 2,-12 5,-14 3,-2 7,-3 12,-3l7 0c16,0 26,-11 30,-32 5,-22 7,-61 7,-119l0 -100c0,-6 1,-10 3,-13 2,-3 7,-4 14,-4l166 0c5,0 9,1 12,3 3,2 4,6 4,14l0 298zm273 -144c0,7 -1,11 -4,13 -3,2 -7,3 -12,3l-120 0c-3,0 -5,1 -6,3 -1,1 -2,3 -2,5l0 20c0,16 6,29 16,37 10,9 25,13 43,13 13,0 24,-1 35,-3 10,-2 21,-5 32,-9 10,-3 15,0 15,10l0 48c0,3 0,6 -2,8 -1,1 -4,3 -9,5 -13,5 -26,8 -40,10 -14,2 -26,3 -36,3 -35,0 -63,-7 -85,-19 -33,-20 -50,-54 -50,-102l0 -101c0,-32 6,-57 19,-76 18,-29 50,-44 95,-44 27,0 49,6 67,17 29,19 44,53 44,103l0 56zm-81 -55l0 -13c0,-12 -1,-20 -4,-26 -5,-11 -14,-16 -26,-16 -11,0 -19,3 -24,10 -6,7 -9,18 -9,32l0 13c0,4 2,6 6,6l51 0c3,0 5,-2 6,-6zm347 -72c0,4 -1,8 -3,10 -3,2 -6,3 -10,3l-5 0c-7,0 -10,5 -10,13l0 40c0,7 0,13 -2,19 -1,5 -3,10 -7,14 -1,2 -4,4 -7,6 -3,2 -4,3 -4,5 10,5 19,12 27,21 8,10 12,22 12,38l0 102c0,8 -1,12 -4,14 -3,2 -7,3 -12,3l-48 0c-5,0 -9,-1 -12,-3 -3,-2 -5,-6 -5,-14l0 -86c0,-14 -2,-24 -8,-30 -5,-6 -12,-9 -21,-9l-13 0c-3,0 -5,1 -6,3 -1,1 -1,3 -1,5l0 117c0,8 -2,12 -5,14 -3,2 -7,3 -12,3l-48 0c-7,0 -12,-1 -14,-4 -2,-3 -3,-7 -3,-13l0 -298c0,-8 2,-12 5,-14 3,-2 7,-3 12,-3l48 0c5,0 9,1 12,3 3,2 5,6 5,14l0 101c0,4 2,7 7,7l6 0c7,0 12,-3 16,-8 3,-6 5,-13 5,-22l0 -38c0,-19 5,-33 15,-43 10,-9 24,-14 41,-14l32 0c5,0 9,1 12,3 3,2 5,6 5,14l0 27zm238 10c0,5 -1,9 -3,12 -2,3 -7,4 -14,4l-44 0c-5,0 -7,3 -7,7l0 238c0,8 -2,12 -5,14 -3,2 -7,3 -12,3l-48 0c-5,0 -9,-1 -12,-3 -3,-2 -5,-6 -5,-14l0 -238c0,-4 -2,-7 -7,-7l-44 0c-5,0 -9,-1 -12,-3 -3,-2 -5,-6 -5,-13l0 -37c0,-8 2,-12 5,-14 3,-2 7,-3 12,-3l184 0c5,0 9,1 12,3 3,2 5,6 5,14l0 37zm246 -38l-67 306c-9,39 -22,66 -41,79 -16,13 -39,19 -67,19 -25,0 -42,-2 -50,-7 -5,-3 -7,-7 -7,-14l0 -45c0,-8 4,-12 11,-12 3,0 8,1 15,4 2,0 4,1 7,1 2,1 5,1 9,1 9,0 14,-1 17,-5 3,-3 5,-7 5,-13 0,-5 -1,-9 -2,-13l-70 -301c-3,-11 1,-16 11,-16l57 0c7,0 11,1 13,4 2,2 4,6 5,12l28 141c1,2 1,6 2,10 1,4 3,6 6,6 3,0 5,-6 7,-16l26 -141c2,-11 7,-16 17,-16l57 0c8,0 13,3 13,9 0,1 -1,4 -2,7zm371 201c0,32 -6,57 -18,76 -19,29 -51,44 -96,44 -42,0 -72,-14 -90,-43 -12,-20 -18,-45 -18,-77l0 -19c0,-5 -2,-7 -7,-7l-27 0c-5,0 -7,2 -7,7l0 117c0,8 -1,12 -4,14 -3,2 -7,3 -13,3l-47 0c-8,0 -12,-1 -14,-4 -2,-3 -3,-7 -3,-13l0 -298c0,-8 1,-12 4,-14 3,-2 7,-3 13,-3l47 0c6,0 10,1 13,3 3,2 4,6 4,14l0 95c0,4 2,7 7,7l27 0c5,0 7,-3 7,-7l0 -5c0,-37 10,-64 29,-83 19,-19 46,-29 79,-29 46,0 77,14 96,43 12,19 18,45 18,77l0 102zm-81 13l0 -129c0,-14 -3,-25 -9,-30 -7,-6 -14,-9 -24,-9 -8,0 -15,3 -21,8 -7,6 -11,17 -11,31l0 129c0,15 4,26 10,32 6,5 13,8 22,8 9,0 16,-3 22,-8 7,-7 11,-17 11,-32zm336 85c0,8 -1,12 -4,14 -3,2 -7,3 -12,3l-48 0c-7,0 -12,-1 -14,-4 -2,-3 -3,-7 -3,-13l0 -88c0,-1 -1,-2 -3,-4 0,0 -1,0 -1,0 -8,2 -17,4 -26,6 -9,2 -18,3 -28,3 -33,0 -56,-12 -68,-36 -8,-15 -11,-37 -11,-65l0 -114c0,-8 1,-12 4,-14 3,-2 7,-3 12,-3l48 0c5,0 9,1 12,3 3,2 5,6 5,14l0 107c0,8 1,14 3,19 5,10 13,15 25,15 19,0 28,-10 28,-31l0 -110c0,-8 1,-12 4,-14 3,-2 8,-3 13,-3l48 0c5,0 9,1 12,3 3,2 4,6 4,14l0 298zm273 0c0,8 -2,12 -5,14 -3,2 -7,3 -12,3l-45 0c-5,0 -9,-1 -12,-3 -3,-2 -4,-6 -4,-14l0 -137c-1,-2 -2,-4 -3,-4 -2,0 -4,2 -5,4l-53 139c-3,6 -6,10 -9,12 -4,2 -7,3 -12,3l-48 0c-7,0 -12,-1 -14,-4 -2,-3 -3,-7 -3,-13l0 -298c0,-8 2,-12 5,-14 3,-2 7,-3 12,-3l45 0c5,0 9,1 12,3 3,2 4,6 4,14l0 137c0,3 1,5 3,5 2,0 3,-1 4,-3l54 -139c3,-8 6,-12 9,-14 3,-2 8,-3 13,-3l47 0c5,0 9,1 12,3 3,2 5,6 5,14l0 298zm277 11c0,2 -1,4 -4,5 -2,1 -6,1 -11,1l-54 0c-4,0 -8,-1 -11,-2 -3,-1 -5,-3 -6,-6l-34 -74c-2,-3 -3,-5 -4,-5l-4 5 -31 65c-3,7 -6,12 -10,14 -4,2 -8,3 -13,3l-58 0c-7,0 -10,-3 -10,-9 0,-3 0,-5 1,-8l74 -150 2 -7 -3 -9 -64 -134c-1,-3 -1,-5 -1,-7 0,-3 1,-6 4,-7 4,-1 7,-1 9,-1l57 0c9,0 16,5 21,15l22 48c2,4 4,6 6,6 2,0 4,-2 6,-7l21 -47c4,-10 11,-15 20,-15l60 0c8,0 12,2 12,7 0,2 -1,5 -2,8l-67 136c-3,4 -4,7 -4,10 1,2 3,5 4,8l69 147c2,4 3,7 3,10zm120 2c0,23 -7,41 -21,55 -14,14 -31,21 -49,21l-7 0c-5,0 -8,-1 -9,-3 -1,-2 -1,-5 -1,-7l0 -20c0,-4 2,-6 5,-7 3,0 7,-1 11,-2 11,-3 16,-12 16,-25l0 -3c0,-3 -2,-5 -5,-5l-10 0c-7,0 -12,-1 -14,-4 -2,-3 -3,-7 -3,-13l0 -53c0,-7 1,-12 4,-14 3,-2 8,-3 13,-3l53 0c7,0 12,2 14,5 2,3 3,7 3,12l0 66z"/>
  <path class="fil0" d="M1258 1734c0,7 -1,12 -4,14 -3,2 -7,3 -12,3l-45 0c-7,0 -11,-2 -13,-5 -2,-3 -3,-7 -3,-12l0 -43c0,-6 -3,-9 -10,-9l-106 0c-7,0 -10,3 -10,9l0 43c0,7 -1,12 -4,14 -3,2 -7,3 -13,3l-44 0c-5,0 -9,-1 -12,-3 -3,-2 -4,-7 -4,-14l0 -102c0,-5 1,-9 3,-12 2,-3 5,-4 9,-4l7 0c7,0 13,-5 16,-13 1,-2 2,-8 4,-17 8,-29 13,-61 17,-94 4,-33 6,-69 6,-109l0 -17c0,-5 1,-9 3,-12 2,-3 7,-5 14,-5l154 0c5,0 9,1 12,3 3,2 5,7 5,14l0 241c0,6 3,9 8,9l6 0c5,0 9,1 12,3 3,2 4,6 4,13l0 102zm-111 -127l0 -182c0,-5 -3,-8 -7,-8l-21 0c-4,0 -7,3 -7,7l0 20c0,53 -2,93 -7,120 -5,16 -11,31 -16,47 2,3 4,5 6,5l44 0c5,0 8,-3 8,-9zm364 -41c0,32 -7,58 -19,77 -18,29 -50,43 -95,43 -45,0 -76,-14 -95,-43 -12,-19 -18,-45 -18,-77l0 -101c0,-33 6,-58 18,-78 18,-28 50,-43 95,-43 45,0 76,15 95,43 12,20 19,45 19,78l0 101zm-82 14l0 -129c0,-15 -3,-25 -9,-31 -6,-6 -14,-9 -23,-9 -9,0 -16,3 -21,8 -8,7 -11,17 -11,32l0 129c0,15 3,25 10,32 6,5 13,7 22,7 9,0 16,-2 22,-7 7,-7 10,-18 10,-32zm343 85c0,7 -1,12 -4,14 -3,2 -7,3 -12,3l-48 0c-5,0 -9,-1 -12,-3 -3,-2 -5,-7 -5,-14l0 -240c0,-4 -2,-6 -5,-6l-44 0c-2,0 -4,0 -5,2 0,1 -1,3 -1,4l0 240c0,7 -1,12 -4,14 -3,2 -7,3 -13,3l-47 0c-8,0 -12,-2 -14,-5 -2,-3 -3,-7 -3,-12l0 -299c0,-7 1,-12 4,-14 3,-2 7,-3 13,-3l184 0c5,0 9,1 12,3 3,2 4,7 4,14l0 299zm272 -99c0,32 -6,58 -19,77 -18,29 -50,43 -95,43 -44,0 -76,-14 -95,-43 -12,-19 -18,-45 -18,-77l0 -101c0,-33 6,-58 18,-78 19,-28 50,-43 95,-43 45,0 77,15 95,43 13,20 19,45 19,78l0 101zm-82 14l0 -129c0,-15 -3,-25 -9,-31 -6,-6 -14,-9 -23,-9 -9,0 -16,3 -21,8 -7,7 -11,17 -11,32l0 129c0,15 3,25 10,32 6,5 13,7 22,7 9,0 16,-2 22,-7 7,-7 10,-18 10,-32zm393 85c0,5 -1,9 -3,12 -2,3 -7,5 -14,5l-45 0c-5,0 -9,-1 -12,-3 -3,-2 -5,-7 -5,-14l0 -132c-1,-3 -1,-4 -2,-4 -3,2 -4,4 -4,5l-27 58c-2,5 -4,8 -6,10 -2,4 -6,5 -10,5l-11 0c-4,0 -8,-1 -11,-5 -1,-2 -3,-5 -5,-10l-28 -60c-1,-2 -2,-4 -4,-4l-2 4 0 133c0,7 -1,12 -4,14 -3,2 -7,3 -12,3l-45 0c-7,0 -12,-2 -14,-5 -2,-3 -3,-7 -3,-12l0 -299c0,-7 1,-12 4,-14 3,-2 7,-3 13,-3l44 0c5,0 9,1 11,2 2,1 4,4 6,10l50 118c1,4 3,6 5,6 2,0 4,-2 5,-6l50 -120c3,-5 5,-8 7,-9 1,0 5,-1 10,-1l45 0c5,0 9,1 12,3 3,2 5,7 5,14l0 299zm271 -99c0,32 -6,58 -19,77 -18,29 -50,43 -95,43 -44,0 -76,-14 -95,-43 -12,-19 -18,-45 -18,-77l0 -101c0,-33 6,-58 18,-78 19,-28 50,-43 95,-43 45,0 77,15 95,43 13,20 19,45 19,78l0 101zm-81 14l0 -129c0,-15 -3,-25 -10,-31 -6,-6 -13,-9 -23,-9 -8,0 -16,3 -21,8 -7,7 -11,17 -11,32l0 129c0,15 3,25 10,32 6,5 13,7 22,7 9,0 16,-2 22,-7 7,-7 11,-18 11,-32zm314 -175c0,5 -1,9 -3,12 -2,3 -7,5 -14,5l-83 0c-5,0 -8,1 -8,4l0 239c0,7 -1,12 -4,14 -3,2 -7,3 -12,3l-48 0c-7,0 -12,-2 -14,-5 -2,-3 -3,-7 -3,-12l0 -299c0,-7 2,-12 5,-14 3,-2 7,-3 12,-3l155 0c5,0 10,1 12,3 3,2 5,7 5,14l0 39zm239 256c0,6 -1,10 -2,13 -3,5 -8,8 -16,8l-50 0c-8,0 -11,-4 -11,-10 0,-3 -2,-4 -5,-4 -3,1 -5,2 -6,3 -5,5 -12,8 -21,11 -10,3 -19,4 -28,4 -23,0 -42,-8 -56,-25 -17,-19 -25,-45 -25,-79 0,-41 13,-73 40,-95 15,-13 41,-27 78,-40l15 -6c4,-1 6,-5 6,-9 0,-9 -4,-14 -11,-18 -8,-3 -17,-4 -27,-4 -12,0 -20,0 -26,1 -7,2 -13,4 -18,5 -5,1 -9,3 -11,4 -8,3 -13,4 -15,4 -7,0 -11,-4 -11,-11l0 -37c0,-7 4,-14 13,-19 15,-8 40,-13 75,-13 45,0 77,11 94,31 12,15 18,36 18,64l0 222zm-81 -69l0 -77c0,-2 -1,-3 -3,-4 -1,-1 -3,0 -6,1l-10 7c-12,8 -20,15 -25,21 -7,10 -10,22 -10,37 0,11 2,20 6,27 4,7 11,10 20,10 8,0 15,-2 20,-7 5,-4 8,-9 8,-15zm526 73c0,7 -2,12 -5,14 -3,2 -7,3 -12,3l-48 0c-5,0 -9,-1 -12,-3 -3,-2 -5,-7 -5,-14l0 -240c0,-4 -1,-6 -5,-6l-44 0c-2,0 -4,0 -4,2 -1,1 -2,3 -2,4l0 240c0,7 -1,12 -4,14 -3,2 -7,3 -12,3l-48 0c-7,0 -12,-2 -14,-5 -2,-3 -3,-7 -3,-12l0 -299c0,-7 2,-12 5,-14 3,-2 7,-3 12,-3l184 0c5,0 9,1 12,3 3,2 5,7 5,14l0 299zm270 -88c0,30 -4,53 -13,70 -13,26 -36,39 -70,39 -13,0 -24,-2 -32,-5 -8,-4 -16,-8 -23,-13 -2,2 -3,3 -3,5l0 78c0,7 -2,12 -5,14 -3,2 -7,3 -12,3l-48 0c-7,0 -11,-2 -13,-5 -2,-3 -3,-7 -3,-12l0 -385c0,-7 1,-12 4,-14 3,-2 7,-3 12,-3l54 0c7,0 11,3 11,9l0 4c0,2 2,4 5,5 6,-6 14,-12 23,-16 10,-4 21,-7 34,-7 34,0 57,14 69,42 6,16 10,39 10,70l0 121zm-83 -3l0 -117c0,-11 -1,-19 -4,-25 -5,-10 -13,-15 -25,-15 -12,0 -20,5 -25,15 -3,6 -4,14 -4,25l0 117c0,10 1,18 4,24 5,10 13,15 25,15 12,0 20,-5 25,-15 3,-6 4,-14 4,-24zm355 91c0,7 -1,12 -4,14 -3,2 -7,3 -12,3l-45 0c-5,0 -9,-1 -12,-3 -3,-2 -5,-7 -5,-14l0 -137c-1,-3 -2,-4 -3,-4 -2,0 -3,1 -4,4l-54 139c-2,6 -5,10 -9,12 -3,2 -7,3 -11,3l-49 0c-7,0 -11,-2 -13,-5 -2,-3 -3,-7 -3,-12l0 -299c0,-7 1,-12 4,-14 3,-2 7,-3 12,-3l45 0c5,0 10,1 13,3 2,2 4,7 4,14l0 137c0,4 1,5 3,5 2,0 3,-1 4,-3l53 -139c3,-7 6,-12 10,-14 3,-2 7,-3 12,-3l48 0c5,0 9,1 12,3 3,2 4,7 4,14l0 299zm450 -88c0,30 -4,53 -13,70 -13,26 -36,39 -70,39 -13,0 -24,-2 -32,-5 -8,-4 -16,-8 -23,-13 -2,2 -3,3 -3,5l0 78c0,7 -2,12 -5,14 -3,2 -7,3 -12,3l-48 0c-7,0 -11,-2 -13,-5 -2,-3 -3,-7 -3,-12l0 -385c0,-7 1,-12 4,-14 3,-2 7,-3 12,-3l54 0c7,0 11,3 11,9l0 4c0,2 2,4 5,5 6,-6 14,-12 23,-16 10,-4 21,-7 34,-7 34,0 57,14 69,42 6,16 10,39 10,70l0 121zm-83 -3l0 -117c0,-11 -1,-19 -4,-25 -5,-10 -13,-15 -25,-15 -12,0 -20,5 -25,15 -3,6 -4,14 -4,25l0 117c0,10 1,18 4,24 5,10 13,15 25,15 12,0 20,-5 25,-15 3,-6 4,-14 4,-24zm354 -8c0,32 -6,58 -18,77 -19,29 -50,43 -95,43 -45,0 -77,-14 -95,-43 -13,-19 -19,-45 -19,-77l0 -101c0,-33 6,-58 19,-78 18,-28 50,-43 95,-43 44,0 76,15 95,43 12,20 18,45 18,78l0 101zm-81 14l0 -129c0,-15 -3,-25 -9,-31 -7,-6 -14,-9 -23,-9 -9,0 -16,3 -22,8 -7,7 -11,17 -11,32l0 129c0,15 4,25 11,32 5,5 12,7 22,7 8,0 16,-2 21,-7 7,-7 11,-18 11,-32zm305 2c0,27 -7,50 -21,67 -20,25 -52,37 -96,37 -23,0 -40,-2 -52,-5 -12,-4 -18,-10 -18,-20l0 -43c0,-7 3,-11 10,-11 13,0 21,2 26,4 5,2 12,4 21,4 16,0 27,-5 35,-14 5,-6 8,-14 8,-23 0,-10 -2,-18 -7,-25 -8,-11 -21,-16 -40,-16l-19 0c-7,0 -11,-2 -13,-5 -2,-3 -3,-7 -3,-12l0 -32c0,-5 1,-9 3,-12 2,-3 6,-5 13,-5l19 0c15,0 25,-3 30,-9 5,-6 8,-14 8,-23 0,-7 -2,-13 -6,-18 -7,-7 -17,-11 -30,-11 -5,0 -10,0 -15,1 -4,1 -10,2 -18,3l-10 2c-6,0 -9,-4 -9,-12l0 -37c0,-7 3,-11 10,-14 6,-3 16,-5 29,-6 13,-2 23,-3 31,-3 37,0 65,10 83,28 14,14 21,34 21,58 0,16 -3,28 -7,37 -5,8 -11,15 -19,21 -4,3 -7,5 -9,6 -2,2 -3,3 -3,4 0,1 2,3 7,6 5,3 7,4 8,5 9,7 16,15 21,24 8,14 12,30 12,49zm307 83c0,5 -1,9 -3,12 -2,3 -7,5 -14,5l-45 0c-5,0 -9,-1 -12,-3 -3,-2 -4,-7 -4,-14l0 -132c-1,-3 -2,-4 -3,-4 -3,2 -4,4 -4,5l-27 58c-2,5 -4,8 -5,10 -3,4 -7,5 -11,5l-11 0c-4,0 -7,-1 -10,-5 -2,-2 -4,-5 -6,-10l-27 -60c-1,-2 -3,-4 -5,-4l-1 4 0 133c0,7 -2,12 -5,14 -3,2 -7,3 -12,3l-45 0c-7,0 -12,-2 -14,-5 -2,-3 -3,-7 -3,-12l0 -299c0,-7 2,-12 5,-14 3,-2 7,-3 12,-3l44 0c6,0 9,1 11,2 3,1 5,4 7,10l49 118c1,4 3,6 5,6 2,0 4,-2 5,-6l51 -120c2,-5 4,-8 6,-9 2,0 5,-1 10,-1l45 0c5,0 9,1 12,3 3,2 5,7 5,14l0 299zm272 0c0,7 -1,12 -4,14 -3,2 -7,3 -12,3l-45 0c-5,0 -9,-1 -12,-3 -3,-2 -5,-7 -5,-14l0 -137c-1,-3 -2,-4 -3,-4 -2,0 -3,1 -4,4l-54 139c-2,6 -5,10 -8,12 -4,2 -8,3 -12,3l-49 0c-7,0 -11,-2 -13,-5 -2,-3 -3,-7 -3,-12l0 -299c0,-7 1,-12 4,-14 3,-2 7,-3 12,-3l45 0c6,0 10,1 13,3 3,2 4,7 4,14l0 137c0,4 1,5 3,5 2,0 3,-1 4,-3l53 -139c3,-7 6,-12 10,-14 3,-2 7,-3 13,-3l47 0c5,0 9,1 12,3 3,2 4,7 4,14l0 299zm244 -262c0,5 -1,9 -3,12 -2,3 -6,5 -13,5l-45 0c-4,0 -7,2 -7,7l0 238c0,7 -1,12 -4,14 -3,2 -7,3 -13,3l-47 0c-6,0 -10,-1 -13,-3 -3,-2 -4,-7 -4,-14l0 -238c0,-5 -2,-7 -7,-7l-44 0c-6,0 -10,-1 -13,-3 -3,-2 -4,-7 -4,-14l0 -37c0,-7 1,-12 4,-14 3,-2 7,-3 13,-3l184 0c5,0 9,1 12,3 3,2 4,7 4,14l0 37zm245 262c0,5 -1,9 -3,12 -2,3 -6,5 -13,5l-48 0c-5,0 -9,-1 -12,-3 -3,-2 -5,-7 -5,-14l0 -119c0,-4 -2,-7 -7,-7l-42 0c-5,0 -7,3 -7,7l0 119c0,7 -2,12 -5,14 -3,2 -7,3 -12,3l-48 0c-7,0 -11,-2 -13,-5 -2,-3 -3,-7 -3,-12l0 -299c0,-7 1,-12 4,-14 3,-2 7,-3 12,-3l48 0c5,0 9,1 12,3 3,2 5,7 5,14l0 96c0,4 2,7 7,7l42 0c5,0 7,-3 7,-7l0 -96c0,-7 2,-12 5,-14 3,-2 7,-3 12,-3l48 0c5,0 9,1 12,3 3,2 4,7 4,14l0 299zm274 -145c0,7 -2,12 -5,14 -3,2 -7,3 -12,3l-120 0c-3,0 -5,1 -6,2 -1,1 -2,3 -2,5l0 21c0,16 6,28 16,37 10,8 25,13 43,13 13,0 24,-1 35,-3 10,-2 21,-5 33,-9 10,-4 15,0 15,9l0 48c0,4 -1,6 -3,8 -1,2 -4,4 -9,6 -13,4 -26,8 -40,10 -13,1 -26,2 -36,2 -35,0 -63,-6 -85,-19 -33,-20 -50,-54 -50,-101l0 -101c0,-32 6,-58 19,-77 18,-29 50,-44 95,-44 27,0 49,6 67,17 30,19 45,54 45,103l0 56zm-82 -55l0 -13c0,-11 -1,-20 -4,-26 -5,-11 -14,-16 -26,-16 -11,0 -19,4 -24,11 -6,6 -9,17 -9,31l0 13c0,4 2,6 6,6l51 0c3,0 5,-2 6,-6zm345 200c0,5 -1,9 -3,12 -2,3 -6,5 -14,5l-47 0c-6,0 -10,-1 -13,-3 -3,-2 -4,-7 -4,-14l0 -119c0,-4 -3,-7 -7,-7l-42 0c-5,0 -7,3 -7,7l0 119c0,7 -2,12 -5,14 -3,2 -7,3 -12,3l-48 0c-7,0 -12,-2 -14,-5 -2,-3 -3,-7 -3,-12l0 -299c0,-7 2,-12 5,-14 3,-2 7,-3 12,-3l48 0c5,0 9,1 12,3 3,2 5,7 5,14l0 96c0,4 2,7 7,7l42 0c4,0 7,-3 7,-7l0 -96c0,-7 1,-12 4,-14 3,-2 7,-3 13,-3l47 0c6,0 10,1 13,3 3,2 4,7 4,14l0 299zm129 -358c0,6 -1,10 -3,13 -2,3 -6,4 -14,4l-47 0c-8,0 -12,-1 -14,-4 -2,-3 -3,-7 -3,-13l0 -36c0,-5 1,-9 3,-12 2,-3 6,-5 14,-5l47 0c6,0 10,1 13,3 3,2 4,7 4,14l0 36zm0 358c0,7 -1,12 -4,14 -3,2 -7,3 -13,3l-47 0c-8,0 -12,-2 -14,-5 -2,-3 -3,-7 -3,-12l0 -299c0,-7 1,-12 4,-14 3,-2 7,-3 13,-3l47 0c6,0 10,1 13,3 3,2 4,7 4,14l0 299zm141 12c0,23 -7,41 -21,55 -14,14 -31,21 -49,21l-7 0c-5,0 -8,-1 -9,-3 -1,-2 -1,-4 -1,-7l0 -20c0,-3 2,-5 5,-6 3,-1 7,-2 11,-3 11,-3 16,-11 16,-25l0 -3c0,-3 -2,-4 -5,-4l-10 0c-7,0 -12,-2 -14,-5 -2,-3 -3,-7 -3,-12l0 -53c0,-8 1,-12 4,-14 3,-2 8,-3 13,-3l53 0c7,0 12,1 14,4 2,3 3,7 3,13l0 65z"/>
  <path class="fil0" d="M3072 2292c0,5 -1,9 -3,12 -2,3 -6,4 -13,4l-48 0c-5,0 -9,-1 -12,-3 -3,-2 -5,-6 -5,-13l0 -238c0,-6 -3,-8 -8,-8l-26 0c-5,0 -7,2 -7,6l0 53c0,77 -5,128 -16,155 -14,35 -44,53 -89,53 -11,0 -20,-1 -25,-2 -5,-2 -8,-6 -8,-13l0 -37c0,-7 2,-12 5,-14 3,-2 7,-3 12,-3l7 0c16,0 26,-10 30,-32 5,-22 7,-61 7,-119l0 -100c0,-6 1,-10 3,-13 2,-3 7,-4 14,-4l166 0c5,0 9,1 12,3 3,2 4,6 4,14l0 299zm272 -99c0,32 -7,58 -19,77 -18,29 -50,43 -95,43 -45,0 -76,-14 -95,-43 -12,-19 -18,-45 -18,-77l0 -102c0,-32 6,-58 18,-77 18,-29 50,-43 95,-43 45,0 76,14 95,43 12,19 19,45 19,77l0 102zm-82 14l0 -129c0,-15 -3,-25 -9,-31 -6,-6 -14,-9 -23,-9 -9,0 -16,3 -21,8 -8,7 -11,17 -11,32l0 129c0,14 3,25 10,31 6,5 13,8 22,8 9,0 16,-3 22,-8 7,-6 10,-17 10,-31zm315 -175c0,5 -1,9 -3,12 -2,3 -7,4 -14,4l-84 0c-4,0 -7,2 -7,5l0 239c0,7 -1,11 -4,13 -3,2 -7,3 -13,3l-47 0c-8,0 -12,-1 -14,-4 -2,-3 -3,-7 -3,-12l0 -299c0,-8 1,-12 4,-14 3,-2 7,-3 13,-3l155 0c5,0 9,1 12,3 3,2 5,6 5,14l0 39zm108 -98c0,5 -1,9 -3,12 -2,3 -7,5 -14,5l-48 0c-7,0 -11,-2 -13,-5 -2,-3 -3,-7 -3,-12l0 -36c0,-6 1,-10 3,-13 2,-3 6,-4 13,-4l48 0c5,0 9,1 12,3 3,2 5,6 5,14l0 36zm0 358c0,7 -2,11 -5,13 -3,2 -7,3 -12,3l-48 0c-7,0 -11,-1 -13,-4 -2,-3 -3,-7 -3,-12l0 -299c0,-8 1,-12 4,-14 3,-2 7,-3 12,-3l48 0c5,0 9,1 12,3 3,2 5,6 5,14l0 299zm230 -2c0,7 -3,12 -8,15 -9,5 -28,8 -57,8 -53,0 -88,-15 -106,-45 -9,-17 -14,-42 -14,-77l0 -103c0,-35 6,-61 19,-79 19,-25 52,-38 101,-38 29,0 48,3 57,8 5,3 8,8 8,15l0 48c0,8 -4,12 -11,12 -6,0 -15,-1 -24,-4 -9,-2 -17,-3 -24,-3 -18,0 -31,6 -38,17 -5,7 -7,19 -7,34l0 88c0,14 2,25 6,32 7,13 20,19 39,19l27 -3c3,0 7,-1 11,-2 5,-1 8,-1 10,-1 5,0 8,1 9,3 1,3 2,5 2,8l0 48zm238 -260c0,5 -1,9 -3,12 -2,3 -7,4 -14,4l-44 0c-5,0 -7,3 -7,8l0 238c0,7 -2,11 -5,13 -3,2 -7,3 -12,3l-48 0c-5,0 -9,-1 -12,-3 -3,-2 -5,-6 -5,-13l0 -238c0,-5 -2,-8 -7,-8l-44 0c-5,0 -9,-1 -12,-3 -3,-2 -5,-6 -5,-13l0 -37c0,-8 2,-12 5,-14 3,-2 7,-3 12,-3l184 0c5,0 9,1 12,3 3,2 5,6 5,14l0 37zm251 262c0,7 -2,11 -5,13 -3,2 -7,3 -12,3l-45 0c-5,0 -9,-1 -12,-3 -3,-2 -4,-6 -4,-13l0 -137c-1,-3 -2,-5 -3,-5 -2,0 -4,2 -5,5l-53 138c-3,6 -6,10 -9,12 -3,2 -7,3 -12,3l-48 0c-7,0 -12,-1 -14,-4 -2,-3 -3,-7 -3,-12l0 -299c0,-8 2,-12 5,-14 3,-2 7,-3 12,-3l45 0c5,0 9,1 12,3 3,2 5,6 5,14l0 137c0,3 1,5 2,5 2,0 3,-1 4,-3l54 -139c3,-8 6,-12 9,-14 4,-2 8,-3 13,-3l47 0c5,0 9,1 12,3 3,2 5,6 5,14l0 299zm268 -272c0,5 -1,8 -3,10 -2,2 -5,3 -10,3l-5 0c-6,0 -9,5 -9,13l0 41c0,6 -1,12 -2,18 -2,6 -4,10 -7,14 -2,2 -4,4 -7,6 -3,2 -5,4 -5,5 11,5 20,12 28,22 8,9 12,21 12,37l0 103c0,7 -2,11 -5,13 -3,2 -7,3 -12,3l-48 0c-5,0 -9,-1 -12,-3 -3,-2 -4,-6 -4,-13l0 -87c0,-14 -3,-23 -8,-29 -5,-6 -12,-9 -21,-9l-14 0c-3,0 -4,0 -5,2 -1,1 -2,3 -2,5l0 118c0,7 -1,11 -4,13 -3,2 -8,3 -13,3l-48 0c-7,0 -11,-1 -13,-4 -2,-3 -3,-7 -3,-12l0 -299c0,-8 1,-12 4,-14 3,-2 7,-3 12,-3l48 0c5,0 10,1 13,3 3,2 4,6 4,14l0 101c0,4 2,7 7,7l6 0c7,0 13,-3 16,-8 3,-6 5,-13 5,-21l0 -39c0,-19 5,-33 15,-42 11,-10 24,-15 42,-15l32 0c5,0 9,1 12,3 3,2 4,6 4,14l0 27zm254 267c0,7 0,11 -2,13 -2,6 -8,8 -16,8l-50 0c-7,0 -11,-3 -11,-9 0,-3 -2,-5 -5,-5 -3,2 -5,3 -5,3 -6,5 -13,9 -22,12 -10,3 -19,4 -27,4 -23,0 -42,-8 -57,-25 -16,-19 -25,-45 -25,-80 0,-40 14,-72 40,-95 15,-13 41,-26 78,-40l15 -5c4,-2 6,-5 6,-10 0,-8 -4,-14 -11,-17 -7,-3 -16,-5 -27,-5 -11,0 -20,1 -26,2 -7,2 -13,4 -18,5 -5,1 -8,2 -11,3 -8,3 -13,5 -15,5 -7,0 -11,-4 -11,-11l0 -37c0,-8 4,-14 13,-19 15,-9 40,-13 75,-13 45,0 77,11 94,31 12,15 18,36 18,64l0 221zm-81 -68l0 -77c0,-2 -1,-3 -2,-4 -2,-1 -4,0 -6,1l-11 7c-11,7 -20,14 -25,21 -6,10 -10,22 -10,37 0,11 2,20 6,27 5,6 11,10 21,10 7,0 14,-2 19,-7 5,-4 8,-9 8,-15zm222 85c0,23 -7,41 -21,55 -14,14 -30,21 -49,21l-7 0c-5,0 -7,-1 -8,-3 -1,-2 -2,-4 -2,-7l0 -20c0,-4 2,-6 5,-7 4,0 7,-1 11,-2 11,-3 16,-11 16,-25l0 -3c0,-3 -1,-5 -5,-5l-10 0c-7,0 -12,-1 -14,-4 -2,-3 -3,-7 -3,-12l0 -54c0,-7 2,-11 5,-13 3,-2 7,-3 12,-3l53 0c7,0 12,1 14,4 2,3 3,7 3,12l0 66z"/>
  <path class="fil0" d="M227 2820c0,32 -6,58 -18,77 -19,28 -50,43 -95,43 -45,0 -77,-15 -95,-43 -13,-19 -19,-45 -19,-77l0 -102c0,-32 6,-58 19,-77 18,-29 50,-43 95,-43 44,0 76,14 95,43 12,19 18,45 18,77l0 102zm-81 13l0 -129c0,-14 -3,-25 -9,-31 -7,-5 -14,-8 -23,-8 -9,0 -16,2 -22,8 -7,6 -11,17 -11,31l0 129c0,15 4,26 10,32 6,5 13,8 23,8 8,0 15,-3 21,-8 7,-7 11,-17 11,-32zm348 -3c0,30 -5,54 -13,70 -13,27 -36,40 -70,40 -13,0 -24,-2 -33,-6 -7,-4 -15,-8 -22,-12 -2,1 -3,3 -3,4l0 78c0,7 -2,12 -5,14 -3,2 -7,3 -12,3l-48 0c-7,0 -12,-1 -14,-4 -2,-3 -3,-8 -3,-13l0 -385c0,-7 2,-11 5,-13 3,-2 7,-3 12,-3l54 0c7,0 11,2 11,8l0 5c0,2 1,3 5,4 6,-6 14,-11 23,-16 10,-4 21,-6 34,-6 34,0 56,14 69,42 6,16 10,39 10,70l0 120zm-83 -3l0 -117c0,-10 -1,-18 -4,-24 -5,-10 -13,-15 -25,-15 -12,0 -20,5 -25,15 -3,6 -4,14 -4,24l0 117c0,11 1,19 4,25 5,10 13,15 25,15 12,0 20,-5 25,-15 3,-6 4,-14 4,-25zm319 -169c0,5 -1,10 -3,13 -2,2 -6,4 -13,4l-84 0c-5,0 -7,2 -7,5l0 238c0,7 -2,12 -5,14 -3,2 -7,3 -12,3l-48 0c-7,0 -12,-2 -14,-4 -2,-3 -3,-8 -3,-13l0 -299c0,-7 2,-11 5,-13 3,-2 7,-3 12,-3l156 0c5,0 9,1 12,3 3,2 4,6 4,13l0 39zm239 256c0,6 0,11 -1,13 -3,5 -9,8 -16,8l-51 0c-7,0 -11,-3 -11,-10 0,-2 -2,-4 -5,-4 -3,1 -4,2 -5,3 -5,5 -13,9 -22,12 -9,2 -18,4 -27,4 -23,0 -42,-9 -57,-25 -16,-19 -25,-46 -25,-80 0,-40 14,-72 40,-95 15,-13 42,-26 78,-40l15 -5c4,-2 6,-5 6,-10 0,-8 -4,-14 -11,-17 -7,-3 -16,-5 -27,-5 -11,0 -20,1 -26,2 -7,2 -12,3 -17,5 -5,1 -9,2 -12,3 -8,3 -12,4 -14,4 -8,0 -12,-3 -12,-10l0 -37c0,-8 5,-14 13,-20 15,-8 40,-12 75,-12 45,0 77,10 95,31 11,14 17,35 17,63l0 222zm-81 -69l0 -76c0,-2 -1,-4 -2,-4 -2,-1 -4,-1 -6,1l-10 6c-12,8 -21,15 -25,22 -7,9 -11,22 -11,36 0,12 2,21 7,27 4,7 10,10 20,10 8,0 14,-2 19,-6 6,-5 8,-10 8,-16zm348 73c0,5 -1,10 -3,13 -2,2 -7,4 -14,4l-48 0c-5,0 -9,-1 -12,-3 -3,-2 -4,-7 -4,-14l0 -118c0,-5 -3,-7 -7,-7l-42 0c-5,0 -7,2 -7,7l0 118c0,7 -2,12 -5,14 -3,2 -7,3 -12,3l-48 0c-7,0 -12,-2 -14,-4 -2,-3 -3,-8 -3,-13l0 -299c0,-7 2,-11 5,-13 3,-2 7,-3 12,-3l48 0c5,0 9,1 12,3 3,2 5,6 5,13l0 96c0,5 2,7 7,7l42 0c4,0 7,-2 7,-7l0 -96c0,-7 1,-11 4,-13 3,-2 7,-3 12,-3l48 0c5,0 10,1 13,3 2,2 4,6 4,13l0 299zm129 -357c0,5 -1,9 -3,12 -2,3 -6,5 -14,5l-47 0c-8,0 -12,-2 -14,-5 -2,-3 -3,-7 -3,-12l0 -37c0,-5 1,-9 3,-12 2,-3 6,-4 14,-4l47 0c6,0 10,1 13,3 3,2 4,6 4,13l0 37zm0 357c0,7 -1,12 -4,14 -3,2 -7,3 -13,3l-47 0c-8,0 -12,-2 -14,-4 -2,-3 -3,-8 -3,-13l0 -299c0,-7 1,-11 4,-13 3,-2 7,-3 13,-3l47 0c6,0 10,1 13,3 3,2 4,6 4,13l0 299zm228 -82c0,27 -7,49 -22,67 -20,24 -52,37 -95,37 -23,0 -41,-2 -53,-6 -12,-3 -18,-10 -18,-20l0 -42c0,-8 4,-11 10,-11 13,0 22,1 27,3 4,3 11,4 21,4 15,0 27,-4 34,-13 6,-6 9,-14 9,-24 0,-10 -3,-18 -8,-25 -8,-10 -21,-16 -39,-16l-19 0c-7,0 -12,-1 -14,-4 -2,-3 -3,-7 -3,-12l0 -33c0,-5 1,-9 3,-12 2,-3 7,-4 14,-4l19 0c14,0 24,-3 30,-10 5,-6 8,-14 8,-23 0,-7 -3,-13 -7,-18 -6,-7 -16,-10 -29,-10 -5,0 -10,0 -15,1 -5,0 -11,1 -18,3l-10 2c-6,0 -9,-4 -9,-12l0 -38c0,-6 3,-11 9,-13 7,-3 16,-5 29,-7 13,-1 23,-2 31,-2 38,0 66,9 83,27 14,15 21,34 21,59 0,15 -2,28 -7,36 -4,9 -11,16 -19,22 -3,2 -6,4 -8,6 -3,1 -4,2 -4,3 0,2 3,4 8,6 4,3 7,5 7,5 9,7 17,15 22,24 8,14 12,31 12,50zm252 78c0,6 -1,11 -2,13 -3,5 -8,8 -16,8l-50 0c-8,0 -11,-3 -11,-10 0,-2 -2,-4 -5,-4 -3,1 -5,2 -6,3 -5,5 -12,9 -21,12 -10,2 -19,4 -28,4 -23,0 -42,-9 -56,-25 -17,-19 -25,-46 -25,-80 0,-40 13,-72 40,-95 15,-13 41,-26 78,-40l15 -5c4,-2 6,-5 6,-10 0,-8 -4,-14 -11,-17 -8,-3 -17,-5 -28,-5 -11,0 -19,1 -25,2 -7,2 -13,3 -18,5 -5,1 -9,2 -11,3 -8,3 -13,4 -15,4 -7,0 -11,-3 -11,-10l0 -37c0,-8 4,-14 13,-20 15,-8 40,-12 75,-12 45,0 77,10 94,31 12,14 18,35 18,63l0 222zm-81 -69l0 -76c0,-2 -1,-4 -3,-4 -1,-1 -3,-1 -6,1l-10 6c-12,8 -20,15 -25,22 -7,9 -10,22 -10,36 0,12 2,21 6,27 4,7 11,10 20,10 8,0 15,-2 20,-6 5,-5 8,-10 8,-16zm380 143c0,5 -1,9 -3,12 -2,3 -6,4 -13,4l-45 0c-5,0 -9,-1 -12,-3 -3,-2 -4,-6 -4,-13l0 -43c0,-7 -3,-10 -10,-10l-147 0c-8,0 -12,-2 -14,-4 -2,-3 -3,-8 -3,-13l0 -299c0,-7 1,-11 4,-13 3,-2 7,-3 13,-3l47 0c6,0 10,1 13,3 3,2 4,6 4,13l0 243c0,5 3,7 7,7l42 0c5,0 7,-2 7,-7l0 -243c0,-7 2,-11 5,-13 3,-2 7,-3 12,-3l48 0c5,0 9,1 12,3 3,2 5,6 5,13l0 241c0,6 2,9 7,9l9 0c5,0 9,1 12,3 3,2 4,7 4,14l0 102zm110 -427c0,5 -1,9 -3,12 -2,3 -6,5 -13,5l-48 0c-7,0 -12,-2 -14,-5 -2,-3 -3,-7 -3,-12l0 -37c0,-5 1,-9 3,-12 2,-3 7,-4 14,-4l48 0c5,0 9,1 12,3 3,2 4,6 4,13l0 37zm0 357c0,7 -1,12 -4,14 -3,2 -7,3 -12,3l-48 0c-7,0 -12,-2 -14,-4 -2,-3 -3,-8 -3,-13l0 -299c0,-7 2,-11 5,-13 3,-2 7,-3 12,-3l48 0c5,0 9,1 12,3 3,2 4,6 4,13l0 299zm276 0c0,7 -2,12 -5,14 -3,2 -7,3 -12,3l-48 0c-5,0 -9,-1 -12,-3 -3,-2 -4,-7 -4,-14l0 -115c0,-4 -2,-6 -6,-6l-9 0c-4,0 -8,3 -10,10l-46 112c-2,5 -5,9 -8,12 -3,3 -9,4 -16,4l-59 0c-6,0 -8,-3 -8,-9 0,-2 0,-4 1,-7l60 -133c1,-3 2,-5 2,-6 0,-4 -9,-12 -27,-24 -18,-12 -27,-32 -27,-60 0,-27 9,-49 28,-67 19,-17 45,-26 78,-26l111 0c5,0 9,1 12,3 3,2 5,6 5,13l0 299zm-81 -190l0 -53c0,-4 -3,-7 -7,-7l-15 0c-17,0 -29,4 -36,12 -5,6 -8,13 -8,22 0,9 3,16 8,22 8,7 20,11 36,11l15 0c4,0 7,-2 7,-7zm568 260c0,7 -1,11 -4,13 -3,2 -8,3 -13,3l-44 0c-7,0 -12,-1 -14,-4 -2,-3 -3,-7 -3,-12l0 -43c0,-7 -3,-10 -9,-10l-107 0c-6,0 -9,3 -9,10l0 43c0,7 -2,11 -5,13 -3,2 -7,3 -12,3l-44 0c-5,0 -9,-1 -12,-3 -3,-2 -5,-6 -5,-13l0 -102c0,-5 1,-9 3,-12 3,-3 6,-5 10,-5l6 0c8,0 13,-4 16,-13 1,-2 3,-7 5,-16 7,-30 13,-61 17,-94 3,-34 5,-70 5,-110l1 -17c0,-5 1,-9 3,-12 2,-3 6,-4 14,-4l154 0c5,0 9,1 12,3 3,2 5,6 5,13l0 241c0,6 2,9 7,9l6 0c5,0 10,1 13,3 3,2 4,7 4,14l0 102zm-112 -127l0 -183c0,-5 -2,-7 -6,-7l-22 0c-4,0 -6,2 -6,6l0 20c0,53 -3,93 -8,121 -5,15 -10,31 -15,46 2,4 4,5 5,5l45 0c5,0 7,-3 7,-8zm364 -41c0,32 -6,58 -18,77 -19,28 -50,43 -95,43 -45,0 -77,-15 -95,-43 -13,-19 -19,-45 -19,-77l0 -102c0,-32 6,-58 19,-77 18,-29 50,-43 95,-43 44,0 76,14 95,43 12,19 18,45 18,77l0 102zm-81 13l0 -129c0,-14 -3,-25 -9,-31 -6,-5 -14,-8 -23,-8 -9,0 -16,2 -22,8 -7,6 -11,17 -11,31l0 129c0,15 4,26 11,32 5,5 13,8 22,8 8,0 16,-3 21,-8 7,-7 11,-17 11,-32zm308 84c0,7 -3,12 -8,15 -9,5 -28,8 -57,8 -53,0 -88,-15 -106,-46 -10,-16 -14,-42 -14,-76l0 -103c0,-35 6,-61 19,-79 18,-25 52,-38 101,-38 29,0 48,2 57,8 5,2 8,7 8,15l0 47c0,8 -4,12 -11,12 -7,0 -15,-1 -24,-3 -10,-2 -17,-3 -24,-3 -18,0 -31,5 -38,17 -5,7 -7,18 -7,34l0 88c0,14 2,25 6,32 7,12 20,19 39,19l27 -3c3,-1 6,-1 11,-2 4,-1 8,-2 10,-2 4,0 7,1 9,4 1,2 2,5 2,8l0 48zm238 -261c0,6 -1,10 -3,13 -2,3 -7,4 -14,4l-44 0c-5,0 -7,3 -7,7l0 238c0,7 -2,12 -5,14 -3,2 -7,3 -12,3l-48 0c-5,0 -9,-1 -12,-3 -3,-2 -5,-7 -5,-14l0 -238c0,-4 -2,-7 -7,-7l-44 0c-5,0 -9,-1 -12,-3 -3,-2 -5,-6 -5,-14l0 -37c0,-7 2,-11 5,-13 3,-2 7,-3 12,-3l184 0c5,0 9,1 12,3 3,2 5,6 5,13l0 37zm238 258c0,6 0,11 -2,13 -2,5 -8,8 -16,8l-50 0c-8,0 -11,-3 -11,-10 0,-2 -2,-4 -5,-4 -3,1 -5,2 -6,3 -5,5 -12,9 -21,12 -10,2 -19,4 -28,4 -23,0 -42,-9 -56,-25 -17,-19 -25,-46 -25,-80 0,-40 13,-72 40,-95 15,-13 41,-26 78,-40l15 -5c4,-2 6,-5 6,-10 0,-8 -4,-14 -11,-17 -8,-3 -17,-5 -27,-5 -12,0 -20,1 -26,2 -7,2 -13,3 -18,5 -5,1 -9,2 -11,3 -8,3 -13,4 -15,4 -7,0 -11,-3 -11,-10l0 -37c0,-8 4,-14 13,-20 15,-8 40,-12 75,-12 45,0 77,10 94,31 12,14 18,35 18,63l0 222zm-81 -69l0 -76c0,-2 -1,-4 -3,-4 -1,-1 -3,-1 -6,1l-10 6c-12,8 -20,15 -25,22 -7,9 -10,22 -10,36 0,12 2,21 6,27 5,7 11,10 20,10 8,0 15,-2 20,-6 5,-5 8,-10 8,-16zm358 -11c0,33 -10,58 -31,75 -20,17 -50,26 -88,26l-96 0c-5,0 -8,-1 -10,-4 -3,-3 -4,-7 -4,-13l0 -299c0,-7 1,-11 4,-13 3,-2 7,-3 13,-3l104 0c31,0 55,8 72,25 15,15 23,34 23,56 0,17 -5,31 -13,44 -6,7 -13,14 -22,20 -1,1 -2,1 -2,2 -1,1 0,1 1,1l13 8c11,6 19,15 25,25 8,14 11,30 11,50zm-99 -139c0,-8 -3,-15 -9,-20 -6,-6 -13,-8 -23,-8l-11 0c-4,0 -6,2 -6,6l0 46c0,4 2,6 6,6l14 0c9,0 16,-3 21,-9 5,-6 8,-13 8,-21zm12 134c0,-10 -3,-20 -11,-28 -7,-9 -17,-13 -29,-13l-14 0c-2,0 -4,1 -5,3 -1,1 -1,3 -2,5l0 68c0,5 2,7 6,7l13 0c14,0 24,-4 31,-12 8,-8 11,-18 11,-30zm350 -182c0,4 -1,8 -3,10 -3,2 -6,3 -10,3l-5 0c-6,0 -10,4 -10,13l0 40c0,7 0,13 -2,18 -1,6 -3,11 -7,15 -1,2 -4,4 -7,5 -2,2 -4,4 -4,6 10,5 20,12 28,21 7,10 11,22 11,38l0 102c0,7 -1,12 -4,14 -3,2 -7,3 -12,3l-48 0c-5,0 -9,-1 -12,-3 -3,-2 -5,-7 -5,-14l0 -86c0,-14 -2,-24 -8,-30 -5,-6 -12,-9 -21,-9l-13 0c-3,0 -5,1 -6,2 -1,2 -1,4 -1,6l0 117c0,7 -2,12 -5,14 -3,2 -7,3 -12,3l-48 0c-7,0 -12,-2 -14,-4 -2,-3 -3,-8 -3,-13l0 -299c0,-7 2,-11 5,-13 3,-2 7,-3 12,-3l48 0c5,0 9,1 12,3 3,2 5,6 5,13l0 101c0,5 2,8 7,8l6 0c7,0 12,-3 16,-8 3,-6 5,-13 5,-22l0 -39c0,-18 5,-32 15,-42 10,-9 24,-14 41,-14l32 0c5,0 9,1 12,3 3,2 5,6 5,13l0 28zm266 271c0,7 -1,12 -4,14 -3,2 -7,3 -12,3l-45 0c-5,0 -9,-1 -12,-3 -3,-2 -5,-7 -5,-14l0 -137c-1,-2 -2,-4 -3,-4 -2,0 -3,2 -4,4l-54 139c-2,6 -5,10 -9,12 -3,2 -7,3 -11,3l-49 0c-7,0 -11,-2 -13,-4 -2,-3 -3,-8 -3,-13l0 -299c0,-7 1,-11 4,-13 3,-2 7,-3 12,-3l45 0c5,0 9,1 12,3 3,2 5,6 5,13l0 138c0,3 1,5 3,5 2,0 3,-1 4,-3l53 -140c3,-7 6,-11 10,-13 3,-2 7,-3 12,-3l48 0c5,0 9,1 12,3 3,2 4,6 4,13l0 299z"/>
  <path class="fil0" d="M5186 2836c0,27 -7,49 -22,67 -20,24 -52,37 -95,37 -23,0 -41,-2 -53,-6 -12,-3 -18,-10 -18,-20l0 -42c0,-8 3,-11 10,-11 13,0 22,1 27,3 4,3 11,4 20,4 16,0 28,-4 35,-13 6,-6 9,-14 9,-24 0,-10 -3,-18 -8,-25 -8,-10 -21,-16 -39,-16l-19 0c-7,0 -12,-1 -14,-4 -2,-3 -3,-7 -3,-12l0 -33c0,-5 1,-9 3,-12 2,-3 7,-4 14,-4l19 0c14,0 24,-3 29,-10 6,-6 9,-14 9,-23 0,-7 -3,-13 -7,-18 -6,-7 -16,-10 -29,-10 -5,0 -10,0 -15,1 -5,0 -11,1 -18,3l-10 2c-6,0 -9,-4 -9,-12l0 -38c0,-6 3,-11 9,-13 7,-3 16,-5 29,-7 13,-1 23,-2 31,-2 38,0 66,9 83,27 14,15 21,34 21,59 0,15 -2,28 -7,36 -4,9 -11,16 -19,22 -3,2 -6,4 -8,6 -3,1 -4,2 -4,3 0,2 3,4 8,6 4,3 7,5 7,5 9,7 17,15 22,24 8,14 12,31 12,50zm190 -60c0,7 -2,12 -5,14 -3,2 -7,3 -12,3l-116 0c-8,0 -12,-2 -14,-5 -2,-3 -3,-7 -3,-12l0 -37c0,-7 1,-12 4,-14 3,-2 7,-3 13,-3l116 0c7,0 12,2 14,5 2,3 3,7 3,12l0 37zm228 60c0,27 -8,49 -22,67 -20,24 -52,37 -96,37 -23,0 -40,-2 -52,-6 -12,-3 -18,-10 -18,-20l0 -42c0,-8 3,-11 10,-11 13,0 22,1 26,3 5,3 12,4 21,4 16,0 27,-4 35,-13 5,-6 8,-14 8,-24 0,-10 -2,-18 -7,-25 -8,-10 -21,-16 -39,-16l-19 0c-8,0 -12,-1 -14,-4 -2,-3 -3,-7 -3,-12l0 -33c0,-5 1,-9 3,-12 2,-3 6,-4 14,-4l19 0c14,0 24,-3 29,-10 6,-6 8,-14 8,-23 0,-7 -2,-13 -6,-18 -7,-7 -16,-10 -30,-10 -5,0 -10,0 -14,1 -5,0 -11,1 -18,3l-11 2c-6,0 -9,-4 -9,-12l0 -38c0,-6 4,-11 10,-13 6,-3 16,-5 29,-7 13,-1 23,-2 31,-2 38,0 65,9 83,27 14,15 21,34 21,59 0,15 -3,28 -7,36 -5,9 -11,16 -19,22 -3,2 -6,4 -9,6 -2,1 -3,2 -3,3 0,2 3,4 7,6 5,3 8,5 8,5 9,7 16,15 22,24 8,14 12,31 12,50zm252 78c0,6 -1,11 -2,13 -3,5 -8,8 -16,8l-50 0c-8,0 -12,-3 -12,-10 0,-2 -1,-4 -5,-4 -2,1 -4,2 -5,3 -5,5 -12,9 -22,12 -9,2 -18,4 -27,4 -23,0 -42,-9 -57,-25 -16,-19 -24,-46 -24,-80 0,-40 13,-72 39,-95 16,-13 42,-26 79,-40l15 -5c3,-2 5,-5 5,-10 0,-8 -3,-14 -11,-17 -7,-3 -16,-5 -27,-5 -11,0 -19,1 -25,2 -7,2 -13,3 -18,5 -5,1 -9,2 -12,3 -7,3 -12,4 -14,4 -8,0 -11,-3 -11,-10l0 -37c0,-8 4,-14 13,-20 14,-8 39,-12 74,-12 46,0 77,10 95,31 12,14 18,35 18,63l0 222zm-82 -69l0 -76c0,-2 0,-4 -2,-4 -2,-1 -3,-1 -6,1l-10 6c-12,8 -20,15 -25,22 -7,9 -10,22 -10,36 0,12 2,21 6,27 4,7 11,10 20,10 8,0 15,-2 20,-6 5,-5 7,-10 7,-16zm529 -198c0,4 -1,8 -3,10 -2,2 -5,3 -10,3l-5 0c-6,0 -9,4 -9,13l0 40c0,7 -1,13 -2,18 -2,6 -4,11 -7,15 -2,2 -4,4 -7,5 -3,2 -4,4 -4,6 10,5 19,12 27,21 8,10 12,22 12,38l0 102c0,7 -1,12 -4,14 -3,2 -7,3 -13,3l-47 0c-6,0 -10,-1 -13,-3 -3,-2 -4,-7 -4,-14l0 -86c0,-14 -3,-24 -8,-30 -5,-6 -12,-9 -21,-9l-14 0c-2,0 -4,1 -5,2 -1,2 -2,4 -2,6l0 117c0,7 -1,12 -4,14 -3,2 -7,3 -13,3l-47 0c-8,0 -12,-2 -14,-4 -2,-3 -3,-8 -3,-13l0 -299c0,-7 1,-11 4,-13 3,-2 7,-3 13,-3l47 0c6,0 10,1 13,3 3,2 4,6 4,13l0 101c0,5 3,8 7,8l6 0c7,0 13,-3 16,-8 4,-6 5,-13 5,-22l0 -39c0,-18 5,-32 15,-42 11,-9 24,-14 42,-14l32 0c5,0 9,1 12,3 3,2 4,6 4,13l0 28zm266 173c0,32 -6,58 -19,77 -18,28 -50,43 -95,43 -44,0 -76,-15 -95,-43 -12,-19 -18,-45 -18,-77l0 -102c0,-32 6,-58 18,-77 19,-29 50,-43 95,-43 45,0 77,14 95,43 13,19 19,45 19,77l0 102zm-81 13l0 -129c0,-14 -4,-25 -10,-31 -6,-5 -14,-8 -23,-8 -9,0 -16,2 -21,8 -7,6 -11,17 -11,31l0 129c0,15 3,26 10,32 6,5 13,8 22,8 9,0 16,-3 22,-8 7,-7 11,-17 11,-32zm347 -3c0,30 -4,54 -12,70 -13,27 -37,40 -70,40 -14,0 -25,-2 -33,-6 -8,-4 -15,-8 -23,-12 -2,1 -3,3 -3,4l0 78c0,7 -1,12 -4,14 -3,2 -7,3 -12,3l-48 0c-7,0 -12,-1 -14,-4 -2,-3 -3,-8 -3,-13l0 -385c0,-7 2,-11 4,-13 3,-2 7,-3 13,-3l54 0c7,0 10,2 10,8l0 5c0,2 2,3 6,4 6,-6 13,-11 23,-16 9,-4 21,-6 34,-6 33,0 56,14 68,42 7,16 10,39 10,70l0 120zm-82 -3l0 -117c0,-10 -2,-18 -4,-24 -5,-10 -13,-15 -25,-15 -12,0 -21,5 -26,15 -2,6 -4,14 -4,24l0 117c0,11 2,19 4,25 5,10 14,15 26,15 12,0 20,-5 25,-15 2,-6 4,-14 4,-25zm390 161c0,7 -1,11 -4,13 -3,2 -7,3 -13,3l-44 0c-7,0 -12,-1 -14,-4 -2,-3 -3,-7 -3,-12l0 -43c0,-7 -3,-10 -9,-10l-106 0c-7,0 -10,3 -10,10l0 43c0,7 -2,11 -5,13 -3,2 -7,3 -12,3l-44 0c-5,0 -9,-1 -12,-3 -3,-2 -5,-6 -5,-13l0 -102c0,-5 1,-9 4,-12 2,-3 5,-5 9,-5l6 0c8,0 13,-4 17,-13 0,-2 2,-7 4,-16 7,-30 13,-61 17,-94 4,-34 5,-70 5,-110l1 -17c0,-5 1,-9 3,-12 2,-3 7,-4 14,-4l154 0c5,0 9,1 12,3 3,2 5,6 5,13l0 241c0,6 2,9 7,9l6 0c6,0 10,1 13,3 3,2 4,7 4,14l0 102zm-112 -127l0 -183c0,-5 -2,-7 -6,-7l-22 0c-4,0 -6,2 -6,6l0 20c0,53 -3,93 -7,121 -6,15 -11,31 -16,46 2,4 4,5 5,5l45 0c5,0 7,-3 7,-8zm364 -41c0,32 -6,58 -18,77 -18,28 -50,43 -95,43 -45,0 -76,-15 -95,-43 -13,-19 -19,-45 -19,-77l0 -102c0,-32 6,-58 19,-77 18,-29 50,-43 95,-43 44,0 76,14 95,43 12,19 18,45 18,77l0 102zm-81 13l0 -129c0,-14 -3,-25 -9,-31 -6,-5 -14,-8 -23,-8 -9,0 -16,2 -22,8 -7,6 -10,17 -10,31l0 129c0,15 3,26 10,32 5,5 13,8 22,8 9,0 16,-3 21,-8 7,-7 11,-17 11,-32zm344 85c0,5 -1,10 -3,13 -2,2 -6,4 -13,4l-48 0c-5,0 -9,-1 -12,-3 -3,-2 -5,-7 -5,-14l0 -118c0,-5 -2,-7 -7,-7l-42 0c-5,0 -7,2 -7,7l0 118c0,7 -2,12 -5,14 -3,2 -7,3 -12,3l-48 0c-7,0 -11,-2 -13,-4 -2,-3 -3,-8 -3,-13l0 -299c0,-7 1,-11 4,-13 3,-2 7,-3 12,-3l48 0c5,0 9,1 12,3 3,2 5,6 5,13l0 96c0,5 2,7 7,7l42 0c5,0 7,-2 7,-7l0 -96c0,-7 2,-11 5,-13 3,-2 7,-3 12,-3l48 0c5,0 9,1 12,3 3,2 4,6 4,13l0 299zm269 -299l-68 306c-9,39 -22,66 -40,79 -17,13 -40,19 -68,19 -25,0 -42,-3 -50,-7 -5,-3 -7,-7 -7,-14l0 -45c0,-8 4,-12 11,-12 3,0 8,1 15,3 2,1 5,1 7,2 2,1 6,1 10,1 8,0 14,-1 17,-5 3,-3 4,-7 4,-13 0,-5 0,-9 -2,-13l-70 -301c-3,-11 1,-16 11,-16l58 0c6,0 10,1 12,4 2,2 4,6 5,12l29 141c0,2 1,5 1,9 1,4 3,6 6,6 3,0 6,-5 8,-15l25 -141c2,-11 8,-16 18,-16l56 0c9,0 13,3 13,9 0,1 -1,4 -1,7z"/>
 </g>
</svg>
